<svg width="54" height="54" viewBox="0 0 54 54" fill="none" xmlns="http://www.w3.org/2000/svg">
<g id="Social Network">
<rect x="0.500366" y="0.479858" width="52.9509" height="52.9509" rx="26.4755" fill="#130F30"/>
<g id="instagram">
<path d="M26.9758 16.1099C30.4846 16.1099 30.9631 16.1099 32.3985 16.1099C33.6744 16.1099 34.3124 16.4289 34.7909 16.5884C35.4288 16.9073 35.9073 17.0668 36.3858 17.5453C36.8643 18.0238 37.1832 18.5023 37.3427 19.1402C37.5022 19.6187 37.6617 20.2566 37.8212 21.5326C37.8212 22.968 37.8212 23.287 37.8212 26.9553C37.8212 30.6235 37.8212 30.9425 37.8212 32.3779C37.8212 33.6539 37.5022 34.2918 37.3427 34.7703C37.0237 35.4083 36.8643 35.8867 36.3858 36.3652C35.9073 36.8437 35.4288 37.1627 34.7909 37.3222C34.3124 37.4816 33.6744 37.6411 32.3985 37.8006C30.9631 37.8006 30.6441 37.8006 26.9758 37.8006C23.3075 37.8006 22.9886 37.8006 21.5531 37.8006C20.2772 37.8006 19.6393 37.4816 19.1608 37.3222C18.5228 37.0032 18.0443 36.8437 17.5659 36.3652C17.0874 35.8867 16.7684 35.4083 16.6089 34.7703C16.4494 34.2918 16.2899 33.6539 16.1305 32.3779C16.1305 30.9425 16.1305 30.6235 16.1305 26.9553C16.1305 23.287 16.1305 22.968 16.1305 21.5326C16.1305 20.2566 16.4494 19.6187 16.6089 19.1402C16.9279 18.5023 17.0874 18.0238 17.5659 17.5453C18.0443 17.0668 18.5228 16.7479 19.1608 16.5884C19.6393 16.4289 20.2772 16.2694 21.5531 16.1099C22.9886 16.1099 23.467 16.1099 26.9758 16.1099ZM26.9758 13.7175C23.3075 13.7175 22.9886 13.7175 21.5531 13.7175C20.1177 13.7175 19.1608 14.0365 18.3633 14.3555C17.5659 14.6745 16.7684 15.1529 15.971 15.9504C15.1735 16.7479 14.8545 17.3858 14.3761 18.3428C14.0571 19.1402 13.8976 20.0972 13.7381 21.5326C13.7381 22.968 13.7381 23.4465 13.7381 26.9553C13.7381 30.6235 13.7381 30.9425 13.7381 32.3779C13.7381 33.8134 14.0571 34.7703 14.3761 35.5678C14.695 36.3652 15.1735 37.1627 15.971 37.9601C16.7684 38.7576 17.4064 39.0766 18.3633 39.555C19.1608 39.874 20.1177 40.0335 21.5531 40.193C22.9886 40.193 23.467 40.193 26.9758 40.193C30.4846 40.193 30.9631 40.193 32.3985 40.193C33.8339 40.193 34.7909 39.874 35.5883 39.555C36.3858 39.236 37.1832 38.7576 37.9807 37.9601C38.7781 37.1627 39.0971 36.5247 39.5756 35.5678C39.8946 34.7703 40.0541 33.8134 40.2136 32.3779C40.2136 30.9425 40.2136 30.4641 40.2136 26.9553C40.2136 23.4465 40.2136 22.968 40.2136 21.5326C40.2136 20.0972 39.8946 19.1402 39.5756 18.3428C39.2566 17.5453 38.7781 16.7479 37.9807 15.9504C37.1832 15.1529 36.5453 14.834 35.5883 14.3555C34.7909 14.0365 33.8339 13.877 32.3985 13.7175C30.9631 13.7175 30.6441 13.7175 26.9758 13.7175Z" fill="white"/>
<path d="M26.9758 20.0972C23.1481 20.0972 20.1177 23.1275 20.1177 26.9553C20.1177 30.783 23.1481 33.8134 26.9758 33.8134C30.8036 33.8134 33.8339 30.783 33.8339 26.9553C33.8339 23.1275 30.8036 20.0972 26.9758 20.0972ZM26.9758 31.421C24.5835 31.421 22.5101 29.5071 22.5101 26.9553C22.5101 24.5629 24.424 22.4895 26.9758 22.4895C29.3682 22.4895 31.4416 24.4034 31.4416 26.9553C31.4416 29.3476 29.3682 31.421 26.9758 31.421Z" fill="white"/>
<path d="M33.9934 21.5326C34.8743 21.5326 35.5883 20.8185 35.5883 19.9377C35.5883 19.0568 34.8743 18.3428 33.9934 18.3428C33.1126 18.3428 32.3985 19.0568 32.3985 19.9377C32.3985 20.8185 33.1126 21.5326 33.9934 21.5326Z" fill="white"/>
</g>
</g>
</svg>
