<svg width="28" height="27" viewBox="0 0 28 27" fill="none" xmlns="http://www.w3.org/2000/svg">
<path d="M14.0527 2.63015C17.5615 2.63015 18.04 2.63015 19.4754 2.63015C20.7513 2.63015 21.3893 2.94914 21.8678 3.10863C22.5057 3.42761 22.9842 3.5871 23.4627 4.06557C23.9412 4.54404 24.2601 5.02252 24.4196 5.66048C24.5791 6.13895 24.7386 6.77691 24.8981 8.05284C24.8981 9.48826 24.8981 9.80724 24.8981 13.4755C24.8981 17.1438 24.8981 17.4628 24.8981 18.8982C24.8981 20.1741 24.5791 20.8121 24.4196 21.2906C24.1006 21.9285 23.9412 22.407 23.4627 22.8855C22.9842 23.3639 22.5057 23.6829 21.8678 23.8424C21.3893 24.0019 20.7513 24.1614 19.4754 24.3209C18.04 24.3209 17.721 24.3209 14.0527 24.3209C10.3844 24.3209 10.0655 24.3209 8.63005 24.3209C7.35412 24.3209 6.71616 24.0019 6.23769 23.8424C5.59973 23.5234 5.12125 23.3639 4.64278 22.8855C4.16431 22.407 3.84533 21.9285 3.68584 21.2906C3.52635 20.8121 3.36685 20.1741 3.20736 18.8982C3.20736 17.4628 3.20736 17.1438 3.20736 13.4755C3.20736 9.80724 3.20736 9.48826 3.20736 8.05284C3.20736 6.77691 3.52635 6.13895 3.68584 5.66048C4.00482 5.02252 4.16431 4.54404 4.64278 4.06557C5.12125 3.5871 5.59973 3.26812 6.23769 3.10863C6.71616 2.94914 7.35412 2.78964 8.63005 2.63015C10.0655 2.63015 10.5439 2.63015 14.0527 2.63015ZM14.0527 0.237793C10.3844 0.237793 10.0655 0.237793 8.63005 0.237793C7.19463 0.237793 6.23769 0.556775 5.44023 0.875757C4.64278 1.19474 3.84533 1.67321 3.04787 2.47066C2.25042 3.26812 1.93144 3.90608 1.45297 4.86303C1.13398 5.66048 0.974493 6.61742 0.815002 8.05284C0.815002 9.48826 0.815002 9.96673 0.815002 13.4755C0.815002 17.1438 0.815002 17.4628 0.815002 18.8982C0.815002 20.3336 1.13398 21.2906 1.45297 22.088C1.77195 22.8855 2.25042 23.6829 3.04787 24.4804C3.84533 25.2778 4.48329 25.5968 5.44023 26.0753C6.23769 26.3943 7.19463 26.5538 8.63005 26.7133C10.0655 26.7133 10.5439 26.7133 14.0527 26.7133C17.5615 26.7133 18.04 26.7133 19.4754 26.7133C20.9108 26.7133 21.8678 26.3943 22.6652 26.0753C23.4627 25.7563 24.2601 25.2778 25.0576 24.4804C25.855 23.6829 26.174 23.045 26.6525 22.088C26.9715 21.2906 27.131 20.3336 27.2905 18.8982C27.2905 17.4628 27.2905 16.9843 27.2905 13.4755C27.2905 9.96673 27.2905 9.48826 27.2905 8.05284C27.2905 6.61742 26.9715 5.66048 26.6525 4.86303C26.3335 4.06557 25.855 3.26812 25.0576 2.47066C24.2601 1.67321 23.6222 1.35423 22.6652 0.875757C21.8678 0.556775 20.9108 0.397284 19.4754 0.237793C18.04 0.237793 17.721 0.237793 14.0527 0.237793Z" fill="white"/>
<path d="M14.0527 6.61742C10.225 6.61742 7.19463 9.64775 7.19463 13.4755C7.19463 17.3033 10.225 20.3336 14.0527 20.3336C17.8805 20.3336 20.9108 17.3033 20.9108 13.4755C20.9108 9.64775 17.8805 6.61742 14.0527 6.61742ZM14.0527 17.9413C11.6604 17.9413 9.58699 16.0274 9.58699 13.4755C9.58699 11.0832 11.5009 9.00978 14.0527 9.00978C16.4451 9.00978 18.5185 10.9237 18.5185 13.4755C18.5185 15.8679 16.4451 17.9413 14.0527 17.9413Z" fill="white"/>
<path d="M21.0703 8.05284C21.9512 8.05284 22.6652 7.33878 22.6652 6.45793C22.6652 5.57709 21.9512 4.86303 21.0703 4.86303C20.1895 4.86303 19.4754 5.57709 19.4754 6.45793C19.4754 7.33878 20.1895 8.05284 21.0703 8.05284Z" fill="white"/>
</svg>
