<svg width="21" height="20" viewBox="0 0 21 20" fill="none" xmlns="http://www.w3.org/2000/svg">
<path d="M20.3153 12.4608V19.7624H16.0413V12.9061C16.0413 11.2142 15.418 10.0567 13.9042 10.0567C12.7467 10.0567 12.0343 10.8581 11.7672 11.5704C11.6782 11.8375 11.5891 12.1937 11.5891 12.6389V19.7624H7.31505C7.31505 19.7624 7.40409 8.18678 7.31505 7.02922H11.5891V8.81009C12.1234 7.91966 13.1919 6.67305 15.418 6.67305C18.1783 6.67305 20.3153 8.54296 20.3153 12.4608ZM2.8629 0.885254C1.43821 0.885254 0.45874 1.86473 0.45874 3.11133C0.45874 4.35793 1.34917 5.33741 2.77386 5.33741C4.28759 5.33741 5.17802 4.35793 5.17802 3.11133C5.26706 1.77568 4.37663 0.885254 2.8629 0.885254ZM0.725869 19.7624H4.99993V7.02922H0.725869V19.7624Z" fill="white"/>
</svg>
