<svg width="54" height="54" viewBox="0 0 54 54" fill="none" xmlns="http://www.w3.org/2000/svg">
<g id="Social Network">
<rect x="0.172791" y="0.479736" width="52.9509" height="52.9509" rx="26.4755" fill="#130F30"/>
<path id="Vector" d="M37.2384 27.9406V35.2421H32.9644V28.3858C32.9644 26.694 32.3411 25.5364 30.8273 25.5364C29.6698 25.5364 28.9574 26.3378 28.6903 27.0502C28.6013 27.3173 28.5122 27.6735 28.5122 28.1187V35.2421H24.2381C24.2381 35.2421 24.3272 23.6665 24.2381 22.509H28.5122V24.2898C29.0465 23.3994 30.115 22.1528 32.3411 22.1528C35.1014 22.1528 37.2384 24.0227 37.2384 27.9406ZM19.786 16.365C18.3613 16.365 17.3818 17.3445 17.3818 18.5911C17.3818 19.8377 18.2723 20.8171 19.697 20.8171C21.2107 20.8171 22.1011 19.8377 22.1011 18.5911C22.1902 17.2554 21.2997 16.365 19.786 16.365ZM17.649 35.2421H21.923V22.509H17.649V35.2421Z" fill="white"/>
</g>
</svg>
