<svg width="26" height="29" viewBox="0 0 26 29" fill="none" xmlns="http://www.w3.org/2000/svg">
<g id="Group 3">
<path id="Vector" d="M25.6907 7.34822C23.8463 7.34817 22.0774 6.61544 20.7732 5.31121C19.4691 4.00698 18.7364 2.2381 18.7364 0.393677H13.7679V19.8497C13.7669 20.7367 13.4869 21.601 12.9673 22.3199C12.4478 23.0389 11.7151 23.5761 10.8732 23.8554C10.0312 24.1348 9.12277 24.142 8.2765 23.8762C7.43023 23.6103 6.68909 23.0849 6.15814 22.3743C5.62718 21.6637 5.33334 20.804 5.31826 19.9171C5.30318 19.0302 5.56763 18.161 6.07412 17.4328C6.58061 16.7046 7.30346 16.1542 8.1402 15.8598C8.97695 15.5653 9.88515 15.5417 10.7361 15.7922V10.9623C8.9277 10.7185 7.08796 11.0321 5.46254 11.8614C3.83711 12.6906 2.50335 13.996 1.63937 15.6033C0.775386 17.2105 0.422294 19.0431 0.627245 20.8563C0.832195 22.6695 1.58543 24.377 2.78638 25.7508C3.98732 27.1247 5.57881 28.0994 7.34833 28.545C9.11785 28.9905 10.9812 28.8856 12.6895 28.2442C14.3978 27.6029 15.8698 26.4556 16.909 24.9557C17.9481 23.4557 18.5049 21.6744 18.505 19.8497L18.6499 10.0153C20.6914 11.5139 23.1587 12.3203 25.6912 12.3165L25.6907 7.34822Z" fill="white"/>
</g>
</svg>
