<svg width="30" height="21" viewBox="0 0 30 21" fill="none" xmlns="http://www.w3.org/2000/svg">
<path fill-rule="evenodd" clip-rule="evenodd" d="M3.83108 19.817C3.31181 19.6634 2.83802 19.3901 2.44968 19.0202C2.06134 18.6503 1.76985 18.1946 1.59981 17.6916C0.628123 15.0919 0.340216 4.23638 2.21161 2.09338C2.83444 1.39625 3.7138 0.967044 4.65881 0.898924C9.67918 0.371957 25.1901 0.44222 26.9716 1.07458C27.4726 1.23326 27.9304 1.50057 28.3106 1.85649C28.6907 2.21241 28.9835 2.6477 29.1668 3.12975C30.2285 5.81728 30.2645 15.5837 29.0229 18.1659C28.6935 18.838 28.1421 19.3825 27.4574 19.7116C25.586 20.6251 6.31427 20.6075 3.83108 19.817V19.817ZM11.8025 14.723L20.7996 10.156L11.8025 5.5538V14.723Z" fill="white"/>
</svg>
