<svg width="54" height="54" viewBox="0 0 54 54" fill="none" xmlns="http://www.w3.org/2000/svg">
<g id="Social Network">
<rect x="0.845215" y="0.479736" width="52.9509" height="52.9509" rx="26.4755" fill="#130F30"/>
<path id="Vector" fill-rule="evenodd" clip-rule="evenodd" d="M15.7542 36.2968C15.2349 36.1431 14.7611 35.8698 14.3728 35.4999C13.9844 35.13 13.6929 34.6743 13.5229 34.1713C12.5512 31.5716 12.2633 20.7161 14.1347 18.5731C14.7575 17.876 15.6369 17.4468 16.5819 17.3787C21.6023 16.8517 37.1132 16.922 38.8947 17.5543C39.3957 17.713 39.8535 17.9803 40.2337 18.3362C40.6138 18.6921 40.9066 19.1274 41.0899 19.6095C42.1516 22.297 42.1876 32.0635 40.946 34.6456C40.6166 35.3178 40.0652 35.8622 39.3805 36.1914C37.5091 37.1048 18.2374 37.0872 15.7542 36.2968V36.2968ZM23.7256 31.2028L32.7227 26.6357L23.7256 22.0335V31.2028Z" fill="white"/>
</g>
</svg>
