<svg xmlns="http://www.w3.org/2000/svg" width="130" height="48" viewBox="0 0 130 48" fill="none">
	<path d="M64.2044 34.5273C62.6042 34.5273 61.0685 34.295 59.6103 33.8433C58.152 33.3788 56.9906 32.798 56.126 32.0754L57.4423 29.1202C58.2682 29.7654 59.2748 30.3074 60.4878 30.7333C61.7009 31.1591 62.9397 31.3785 64.2044 31.3785C65.2755 31.3785 66.1402 31.2624 66.8112 31.0301C67.4694 30.7978 67.9597 30.4752 68.2695 30.0751C68.5792 29.6751 68.734 29.2234 68.734 28.7072C68.734 28.0878 68.5147 27.5845 68.063 27.1973C67.6113 26.8102 67.0306 26.5134 66.3208 26.294C65.6111 26.0746 64.8239 25.8552 63.9463 25.6616C63.0817 25.4681 62.2042 25.2358 61.3395 24.9777C60.4749 24.7196 59.6748 24.3712 58.965 23.9582C58.2553 23.5323 57.6746 22.9774 57.2229 22.2806C56.7712 21.5837 56.5518 20.6804 56.5518 19.5835C56.5518 18.4736 56.8487 17.4542 57.4423 16.525C58.0359 15.5959 58.9392 14.8603 60.1652 14.3054C61.3912 13.7505 62.9268 13.4666 64.811 13.4666C66.0369 13.4666 67.2629 13.6214 68.4759 13.9311C69.689 14.2408 70.7343 14.6925 71.6376 15.2732L70.4375 18.2285C69.5212 17.6864 68.5792 17.2735 67.5984 17.0154C66.6176 16.7573 65.6885 16.6153 64.7851 16.6153C63.7269 16.6153 62.8752 16.7444 62.2171 16.9896C61.5589 17.2477 61.0814 17.5703 60.7846 17.9833C60.4878 18.3962 60.333 18.8608 60.333 19.3899C60.333 20.0093 60.5523 20.5126 60.9911 20.8998C61.4299 21.2869 62.0106 21.5837 62.7204 21.7902C63.4301 22.0096 64.2302 22.2161 65.1078 22.4225C65.9853 22.629 66.8628 22.8613 67.7275 23.1065C68.5921 23.3646 69.3922 23.6872 70.1019 24.1002C70.8117 24.5131 71.3924 25.068 71.8312 25.7649C72.27 26.4618 72.4894 27.3522 72.4894 28.4233C72.4894 29.5202 72.1925 30.5268 71.5989 31.4559C71.0053 32.3851 70.089 33.1207 68.8631 33.6756C67.6371 34.2434 66.0885 34.5273 64.2044 34.5273Z" fill="white"/>
	<path d="M76.2705 34.2307V13.7378H80.0774V34.2307H76.2705Z" fill="white"/>
	<path d="M82.7097 34.2307L91.9367 13.7378H95.6791L104.932 34.2307H100.944L93.0078 15.751H94.5306L86.6199 34.2307H82.7097ZM86.9554 29.4946L87.9749 26.5136H99.0473L100.067 29.4946H86.9554Z" fill="white"/>
	<path d="M111.346 34.2307H107.539V13.7378H122.496V16.9253H111.346V34.2307ZM111.023 23.1583H121.244V26.3846H111.023V23.1583Z" fill="white"/>
	<path d="M126.186 34.2307V13.7378H129.993V34.2307H126.186Z" fill="white"/>
	<path d="M23.27 22.7323C23.27 29.4686 23.2571 36.205 23.2829 42.9413C23.2829 43.9866 22.9345 44.8254 22.2505 45.561C21.1923 46.7095 19.8631 47.458 18.3791 47.871C17.7596 48.0387 17.0499 47.9484 16.3917 47.9226C15.127 47.858 13.9011 47.6258 12.7654 47.0321C11.6298 46.4385 10.791 45.5868 10.3264 44.3737C10.2748 44.2447 10.1199 44.1027 9.99089 44.064C6.62272 42.9542 4.53213 40.6442 3.52555 37.2761C3.33198 36.6308 3.08679 35.9985 2.95774 35.3403C2.69964 34.0369 2.8416 32.7593 3.21584 31.4947C3.26746 31.314 3.29326 31.1721 3.1384 31.0172C-1.17182 26.5521 -1.19763 16.0992 4.02884 12.2793C4.15789 12.189 4.24823 11.9825 4.27404 11.8148C4.6999 8.44659 6.15815 5.73657 9.15208 3.99441C9.88766 3.56855 10.7394 3.31046 11.5266 2.97493C11.6943 2.8975 11.875 2.82007 12.0041 2.69102C13.372 1.34892 14.9593 0.381055 16.8821 0.0971481C19.1275 -0.225474 21.2052 0.252006 23.0635 1.58121C23.1668 1.64573 23.2055 1.81349 23.2442 1.92963C23.27 2.01997 23.2571 2.12321 23.2571 2.22645C23.27 9.06603 23.27 15.9056 23.27 22.7323ZM5.88715 12.8213C5.70648 12.9891 5.60324 13.1052 5.47419 13.2085C5.02252 13.5569 4.51923 13.8666 4.11918 14.2667C2.95774 15.441 2.36412 16.9122 2.11892 18.4995C1.96406 19.5061 1.97697 20.5255 1.88663 21.545C1.77049 22.9 1.83501 24.2551 2.10601 25.5843C2.50606 27.4942 3.29326 29.1847 4.86766 30.4236C5.12576 30.6301 5.15156 30.7978 5.03542 31.0817C4.4547 32.4625 4.23532 33.895 4.58375 35.3791C4.69989 35.8952 4.91928 36.3856 5.07413 36.9018C5.84843 39.4441 7.39701 41.3024 9.87475 42.3477C10.1587 42.4638 10.378 42.4638 10.6361 42.2573C12.4686 40.8378 14.314 39.4312 16.1594 38.0374C16.5079 37.7794 16.8305 37.5342 16.766 37.0438C16.753 36.9792 16.7918 36.9147 16.8176 36.8502C17.1273 36.0114 18.0177 35.5597 18.8565 35.8307C19.7083 36.1017 20.1986 36.9793 19.9535 37.831C19.7083 38.7085 18.8436 39.2247 17.9532 38.9795C17.6822 38.9021 17.5015 38.9537 17.295 39.1215C15.5271 40.4765 13.7591 41.8315 11.9782 43.1865C11.7589 43.3543 11.7072 43.5091 11.7976 43.7672C12.1073 44.6447 12.7267 45.2384 13.5397 45.6513C14.6754 46.232 15.9142 46.3482 17.166 46.3869C17.4886 46.3998 17.8242 46.4256 18.121 46.3353C19.2308 45.961 20.2374 45.4061 21.0633 44.5673C21.5278 44.0898 21.7601 43.5349 21.7601 42.8381C21.7472 30.5784 21.7601 18.3188 21.7601 6.04629C21.7601 4.97518 21.7601 3.89118 21.7472 2.82007C21.7472 2.67812 21.6569 2.48455 21.5537 2.42002C19.0888 1.07792 16.3014 1.18116 14.0043 3.00074C13.9398 3.05236 13.8495 3.09108 13.7591 3.12979C13.9011 3.29755 13.9656 3.38789 14.043 3.46531C15.1657 4.56223 16.2756 5.65914 17.4112 6.74315C17.6177 6.93673 17.6951 7.13029 17.6951 7.4142C17.6951 11.4663 17.6951 15.5185 17.6951 19.5706C17.6951 19.8416 17.6048 19.9964 17.4112 20.1513C16.2239 21.1063 15.0496 22.0741 13.8753 23.0291C13.7075 23.171 13.6688 23.3259 13.6172 23.5324C13.5397 23.8937 13.4494 24.2809 13.23 24.5648C12.7138 25.2229 11.7976 25.3391 11.1265 24.9132C10.4168 24.4615 10.1587 23.584 10.5071 22.8097C10.8297 22.087 11.6427 21.7257 12.4557 21.9193C12.5848 21.9451 12.7654 21.9193 12.8687 21.8289C13.8882 21.0159 14.9076 20.19 15.9142 19.3512C16.0433 19.248 16.1465 19.0415 16.1465 18.8866C16.1594 15.2604 16.1594 11.6341 16.1465 7.99492C16.1465 7.82716 16.0691 7.62068 15.9529 7.50454C14.9464 6.48505 13.914 5.49138 12.8816 4.4977C12.7783 4.40737 12.5719 4.34285 12.4428 4.36866C9.19079 5.07842 6.76468 7.42711 6.0162 10.8598C5.97748 11.0534 6.0291 11.1566 6.20977 11.2469C7.56478 11.9696 8.90689 12.6923 10.249 13.4279C10.4297 13.5311 10.5845 13.5569 10.8039 13.4666C11.6169 13.144 12.5202 13.4924 12.8687 14.2538C13.1526 14.8732 13.1268 15.4927 12.6751 16.0347C12.2363 16.5638 11.6556 16.7444 10.9975 16.5767C10.3006 16.396 9.90056 15.9185 9.79732 15.2216C9.75861 14.9764 9.66827 14.8603 9.44889 14.7571C9.08755 14.5764 8.75202 14.3828 8.39069 14.1893C7.52606 13.7118 6.68725 13.2601 5.88715 12.8213ZM13.4236 32.7465C13.4236 32.0625 13.4107 31.3656 13.4365 30.6817C13.4365 30.5268 13.5268 30.3332 13.643 30.2429C14.8818 29.2234 16.1336 28.2427 17.3596 27.2232C17.5919 27.0296 17.7983 26.9651 18.1081 27.0167C19.063 27.1974 19.8889 26.5263 19.9922 25.5197C20.0825 24.6422 19.3469 23.8292 18.4049 23.7776C17.5273 23.726 16.7401 24.4873 16.7401 25.4036C16.7401 25.6617 16.6498 25.8036 16.4562 25.9585C15.0238 27.0683 13.6043 28.191 12.1718 29.2879C11.9524 29.4557 11.875 29.6235 11.875 29.9074C11.8879 31.5721 11.875 33.2368 11.875 34.9016C11.875 35.1209 11.8234 35.2758 11.6427 35.4178C11.2427 35.7533 11.062 36.205 11.0878 36.7211C11.1265 37.5342 11.6943 38.1536 12.4815 38.2697C13.2171 38.3859 13.9785 37.96 14.2624 37.2761C14.5592 36.5405 14.3269 35.7404 13.6559 35.2758C13.4623 35.1468 13.3978 35.0048 13.4107 34.7854C13.4236 34.1015 13.4236 33.4304 13.4236 32.7465ZM8.50683 29.0428C8.72622 28.333 8.50683 27.5845 7.9003 27.1845C7.66802 27.0296 7.61639 26.8618 7.61639 26.6166C7.61639 24.4357 7.6164 22.2419 7.60349 20.061C7.60349 19.7125 7.65511 19.4544 7.93902 19.1834C8.59717 18.5511 8.51974 17.4284 7.82288 16.8477C7.0873 16.2282 6.0291 16.3444 5.43548 17.1058C4.89347 17.8026 5.04833 18.9124 5.79681 19.4028C6.0291 19.5577 6.08072 19.7125 6.08072 19.9706C6.06781 22.229 6.06781 24.4744 6.06781 26.7328C6.06781 26.978 6.00329 27.1586 5.80971 27.3393C5.30642 27.791 5.15157 28.5008 5.40966 29.1331C5.65486 29.7654 6.24848 30.1655 6.93244 30.1655C7.66802 30.1655 8.30036 29.7138 8.50683 29.0428ZM46.3697 21.4289C46.2794 20.3449 46.2794 19.248 46.1116 18.1769C46.0858 17.9962 46.0471 17.8155 46.0084 17.6349C45.647 16.2024 45.0663 14.8603 44.163 13.8537C44.0985 13.7892 44.0339 13.7118 43.9694 13.6473C43.5436 13.2085 43.0015 12.8859 42.5241 12.5116C42.3821 12.4084 42.266 12.2793 42.0724 12.0987C41.2207 12.5503 40.3173 13.0407 39.4011 13.5311C39.0268 13.7376 38.6526 13.957 38.2784 14.1376C38.059 14.2409 37.9557 14.3828 37.9041 14.6409C37.788 15.3894 37.3621 15.8927 36.6136 16.0863C35.9039 16.2669 35.2844 16.0734 34.8199 15.5185C34.3424 14.9377 34.3037 14.2796 34.6134 13.6214C34.9876 12.8213 35.9555 12.4471 36.8201 12.7826C37.0524 12.873 37.2202 12.8472 37.4137 12.7439C38.8462 11.9567 40.2915 11.1824 41.7369 10.4081C41.9304 10.3049 41.9821 10.2017 41.9433 9.98227C41.1432 6.30438 38.5494 3.78794 35.078 3.03946C34.936 3.01365 34.7166 3.07817 34.6134 3.18141C33.5036 4.2396 32.4196 5.31071 31.3355 6.39472C31.2065 6.52377 31.1291 6.74315 31.1291 6.92382C31.1162 10.8082 31.1162 14.6796 31.1291 18.564C31.1291 18.7318 31.2452 18.9512 31.3743 19.0673C32.4454 19.9706 33.5294 20.8482 34.6263 21.7257C34.7295 21.816 34.936 21.8547 35.0651 21.816C35.9426 21.6096 36.8072 21.9967 37.1556 22.7581C37.5299 23.584 37.246 24.5261 36.4846 25.0035C35.7619 25.4552 34.794 25.3391 34.2391 24.6293C34.0069 24.3325 33.9036 23.9066 33.8262 23.5324C33.7746 23.313 33.7359 23.1452 33.5552 22.9904C32.2905 21.9709 31.0387 20.9385 29.7741 19.919C29.5676 19.7513 29.4643 19.5706 29.4643 19.2867C29.4772 14.9506 29.4772 10.6275 29.4643 6.29148C29.4643 5.99467 29.5547 5.78819 29.7741 5.58172C30.9871 4.42028 32.1744 3.24593 33.3745 2.08449C33.452 2.00706 33.5294 1.90382 33.6842 1.73606C33.581 1.68444 33.4907 1.65863 33.4132 1.59411C30.9484 -0.34162 27.9674 -0.457763 25.3348 0.974677C25.2186 1.0392 25.1283 1.25858 25.1283 1.40054C25.1154 2.54907 25.1154 3.6976 25.1154 4.85904C25.1154 9.11764 25.1154 13.3633 25.1154 17.622C25.1154 20.4997 25.1154 23.3775 25.1154 26.2424V28.8492C25.1154 31.6237 25.1154 34.3983 25.1154 37.1857C25.1154 39.0053 25.1154 40.8378 25.1154 42.6574C25.1154 42.8381 25.1154 43.0187 25.1154 43.1994C25.1154 44.335 25.1799 45.29 25.9929 46.1675L26.0058 46.1804C26.4833 46.645 27.0124 47.0192 27.5931 47.329C28.419 47.7419 29.3224 47.9613 30.2386 48C31.4259 47.9613 32.5873 47.8322 33.6842 47.329C33.7617 47.2902 33.8391 47.2515 33.9165 47.2128C34.7811 46.774 35.4393 46.1417 35.7748 45.1996C35.8781 44.9157 35.8135 44.7609 35.5812 44.5673C33.6842 43.1349 31.7872 41.6895 29.8902 40.2313C29.6579 40.0506 29.4643 40.0119 29.1804 40.0893C28.2384 40.3474 27.3092 39.7925 27.0511 38.8634C26.793 37.9471 27.3092 37.0051 28.2255 36.7211C29.1288 36.4372 30.0838 36.9147 30.4064 37.8181C30.4322 37.8826 30.4709 37.96 30.458 38.0245C30.3935 38.5536 30.7419 38.8117 31.1162 39.0956C32.2131 39.9216 33.2971 40.7475 34.394 41.5863C34.6134 41.7541 34.8328 41.9218 35.0522 42.0896C35.078 42.1025 35.1038 42.1283 35.1167 42.1412C35.1167 42.1412 35.1296 42.1412 35.1296 42.1541C35.6974 42.5929 36.2652 43.0316 36.833 43.4704C37.1815 43.6511 37.5428 43.7414 37.9299 43.664C38.4074 43.4575 38.8591 43.2252 39.285 42.9542C40.6916 41.9347 41.8659 40.5023 42.6273 38.8763V38.8634C42.7564 38.5407 42.8725 38.2181 42.9757 37.8697C43.1048 37.4567 43.2596 37.0567 43.3887 36.6437C43.7371 35.0435 43.6855 33.3788 43.0919 31.856C43.0661 31.7915 43.0403 31.727 43.0145 31.6624C42.8854 31.3527 42.9112 31.1721 43.1951 30.9527C43.2855 30.8882 43.3629 30.8107 43.4532 30.7462C43.5177 30.6817 43.5823 30.6301 43.6468 30.5655C43.7242 30.501 43.7887 30.4236 43.8533 30.3591C43.9178 30.2945 43.9823 30.23 44.0468 30.1526L44.0598 30.1397C44.1243 30.0622 44.1888 29.9977 44.2533 29.9203C44.3566 29.7912 44.4598 29.6622 44.563 29.5331C44.5888 29.4944 44.6147 29.4557 44.6405 29.417C45.4019 28.3459 45.8535 27.107 46.1374 25.7649C46.4342 24.3196 46.4988 22.8871 46.3697 21.4289ZM36.4975 37.6245C36.4459 38.4891 35.8522 39.1473 35.0134 39.2892C34.2262 39.4183 33.4132 38.9666 33.1164 38.2181C32.7938 37.4309 33.039 36.5792 33.7617 36.0888C33.9681 35.9469 34.0327 35.792 34.0327 35.5597C34.0198 34.837 34.0327 34.1144 34.0327 33.3917C34.0327 32.6561 34.0456 31.9205 34.0198 31.185C34.0198 31.0172 33.9294 30.8107 33.8004 30.7075C32.4841 29.6235 31.142 28.5653 29.8257 27.4813C29.5805 27.2748 29.3611 27.2103 29.0256 27.2619C28.0061 27.4555 27.1286 26.7328 27.0124 25.6617C26.9092 24.7196 27.6964 23.855 28.7159 23.8034C29.6579 23.7518 30.4967 24.5648 30.4967 25.5455C30.4967 25.8165 30.6 25.9714 30.7935 26.1392C32.3163 27.3264 33.8391 28.5266 35.3748 29.7009C35.6071 29.8816 35.6974 30.0622 35.6974 30.3591C35.6845 32.1399 35.6974 33.9208 35.6974 35.7017C35.6974 35.934 35.749 36.1017 35.9426 36.2566C36.3426 36.5921 36.5362 37.0825 36.4975 37.6245ZM41.8659 26.9522C41.8659 27.2232 41.9305 27.4038 42.1498 27.5974C42.6918 28.0749 42.8467 28.8363 42.5757 29.5202C42.3176 30.1913 41.6723 30.6301 40.9497 30.6301C40.1754 30.6301 39.5043 30.1526 39.272 29.4299C39.0268 28.6685 39.272 27.8684 39.9173 27.4426C40.1625 27.2748 40.227 27.107 40.227 26.836C40.2141 24.5002 40.2141 22.1645 40.2399 19.8287C40.2399 19.4544 40.1754 19.1705 39.8786 18.8866C39.1688 18.2156 39.2591 17.0154 39.9947 16.3831C40.7819 15.712 41.9046 15.8411 42.5499 16.667C43.1306 17.4155 42.9628 18.6027 42.1627 19.1189C41.9046 19.2867 41.853 19.4544 41.853 19.7254C41.8659 22.1387 41.8788 24.539 41.8659 26.9522Z" fill="url(#paint0_linear_143_2936)"/>
	<defs>
	<linearGradient id="paint0_linear_143_2936" x1="0.0101349" y1="23.984" x2="46.4345" y2="23.984" gradientUnits="userSpaceOnUse">
	<stop stop-color="white"/>
	<stop offset="1" stop-color="white"/>
	</linearGradient>
	</defs>
	</svg>