<svg width="20" height="20" viewBox="0 0 20 20" fill="none" xmlns="http://www.w3.org/2000/svg">
<path id="arrow_right_up [#358]" fill-rule="evenodd" clip-rule="evenodd" d="M18.0094 0H6.87782C6.33865 0 5.99554 0.442853 5.99554 0.981675V1.00967C5.99554 1.55948 6.32664 1.99934 6.87682 1.99934H15.4285C15.8747 1.99934 16.0968 2.54316 15.7817 2.85705L0.289717 18.3139C-0.0964056 18.6988 -0.0964056 19.3256 0.288717 19.7105V19.7115C0.67484 20.0963 1.30004 20.0963 1.68416 19.7105L17.1501 4.2156C17.4652 3.90071 17.9994 4.12363 17.9994 4.56849V13.0207C17.9994 13.5645 18.4505 13.9954 18.9957 13.9954H19.0237C19.5689 13.9954 20 13.5645 20 13.0207V2.01033C20 0.9057 19.1147 0 18.0094 0Z" fill="#0077FF"/>
</svg>
