<svg width="78" height="61" viewBox="0 0 78 61" fill="none" xmlns="http://www.w3.org/2000/svg">
<path id="Vector" d="M3.60893 44.5998L2.13775 2.98276C5.22328 12.3413 8.2171 19.4623 11.2062 24.3434C13.2305 27.6492 15.3372 30.0716 17.5987 31.419C19.9466 32.8172 22.414 33.0201 24.8676 31.9635C27.2176 30.9522 29.4306 28.8428 31.5666 25.9052C33.7188 22.9473 35.8901 19.014 38.111 14.1629C39.7516 10.5759 41.4333 6.45977 43.1618 1.82446C42.1892 7.06413 41.4586 11.7781 40.9845 15.9632C40.3707 21.3847 40.1818 25.9687 40.4737 29.6835C40.7625 33.3693 41.5347 36.3656 42.9837 38.4727C44.5026 40.681 46.6939 41.8014 49.4141 41.7864C52.0187 41.7717 55.0372 40.7219 58.4284 38.8572C63.1637 36.2539 68.9323 31.8868 75.798 25.7951L53.5018 58.8826L3.60893 44.5998Z" stroke="#EA0000" stroke-width="2.5" stroke-linecap="round" stroke-linejoin="round"/>
</svg>
