<svg width="193" height="260" viewBox="0 0 193 260" fill="none" xmlns="http://www.w3.org/2000/svg">
<path d="M12.2655 110.493C11.807 107.314 11.348 104.523 10.8889 101.733C10.8288 101.368 10.7335 101.007 10.713 100.641C10.4458 95.8241 10.191 91.0067 9.92773 86.1905C9.67182 81.5025 9.62756 76.7901 9.08114 72.1362C8.64253 68.4015 7.57352 64.7416 6.83077 61.0392C6.70538 60.4162 6.61856 59.6689 6.84325 59.1111C8.95291 53.8626 6.71672 48.6179 6.55841 43.4227C6.42734 39.1517 4.62977 34.8019 3.05008 30.5917C1.86305 27.4278 1.68999 23.8287 1.41536 20.3952C1.15775 17.1763 1.45962 13.9165 1.32911 10.6822C1.22357 8.06189 0.744673 5.45802 0.612465 2.83769C0.510898 0.812587 1.76091 -0.056128 3.41153 1.03898C7.71594 3.89422 12.3455 2.27425 16.7719 2.04842C19.8087 1.89294 22.8024 0.643495 25.9652 0.850035C28.3018 1.00324 28.4334 1.37489 28.6689 4.07012C29.0173 8.02163 29.5343 11.9565 30.2185 15.8639C30.8217 19.3308 31.7409 22.7421 32.5183 26.1783C33.724 31.5109 35.1959 36.8015 36.0606 42.1897C36.9923 47.9926 39.9117 53.3734 39.5826 59.4374C39.5349 60.3141 40.2192 61.2236 40.5358 62.1281C41.2485 64.1663 42.3323 66.1681 42.5655 68.2624C43.083 72.9096 44.4504 77.3348 45.457 81.8566C46.2571 85.4506 46.6968 89.1235 47.3295 92.7555C47.4742 93.5851 47.8192 94.38 47.9627 95.2096C48.55 98.6016 49.084 102.003 49.6593 105.397C50.0894 107.936 50.6625 110.456 50.9604 113.009C51.1318 114.477 50.654 116.029 50.873 117.481C51.2339 119.874 51.9193 122.218 52.4799 124.58C52.5338 124.809 52.8017 125.053 52.7523 125.23C51.0495 131.349 54.7973 137.227 53.5501 143.319C54.9488 147.154 53.6046 151.247 54.4602 155.019C55.3879 159.109 55.0418 163.129 55.0469 167.167C55.0526 171.724 54.6043 176.283 54.3195 180.839C54.2372 182.154 54.3223 183.099 56.0966 182.833C57.8971 182.563 58.267 184.797 58.1025 185.2C56.184 189.887 58.385 194.221 59.0251 198.665C59.4257 201.447 60.5611 204.226 60.4186 206.958C60.2688 209.832 61.9717 210.73 63.8322 211.237C67.1517 212.138 70.5442 212.744 73.9702 213.049C76.03 213.233 78.1816 212.719 80.2566 212.33C83.9738 211.635 87.641 210.637 91.3769 210.095C93.0513 209.851 94.8398 210.52 96.5806 210.556C97.7393 210.579 98.8991 210.157 100.069 210.032C102.814 209.738 105.561 209.391 108.315 209.286C109.947 209.223 109.102 208.814 108.926 207.922C107.656 201.492 104.237 195.815 102.612 189.523C102.554 189.302 102.321 189.118 102.145 188.941C101.246 188.039 99.8841 186.657 101.01 185.826C102.23 184.926 103.849 183.614 105.991 184.891C108.341 186.291 110.952 187.87 113.557 188.088C117.938 188.456 121.767 190.337 125.879 191.378C130.683 192.595 135.479 193.864 140.229 195.279C143.215 196.169 146.071 197.49 149.052 198.403C155.144 200.269 161.232 201.824 167.693 202.442C175.281 203.168 182.818 202.684 190.368 203.021C191.923 203.091 192.836 204.35 192.175 205.679C191.902 206.228 191.316 206.625 190.862 207.082C185.988 211.995 180.482 216.122 174.882 220.164C170.744 223.151 166.853 226.478 162.824 229.617C160.185 231.672 157.32 233.473 154.868 235.725C151.327 238.976 148.063 242.528 144.692 245.964C144.071 246.597 143.514 247.293 142.913 247.947C139.904 251.218 136.89 254.485 133.871 257.747C133.342 258.317 132.833 258.934 132.209 259.382C130.888 260.328 129.486 259.868 128.788 258.29C125.93 251.827 123.076 245.362 120.261 238.879C119.737 237.672 119.465 236.357 118.949 235.146C118.769 234.722 118.123 234.109 117.828 234.178C112.631 235.387 107.479 236.797 102.265 237.923C99.967 238.418 97.5827 237.987 95.1899 238.704C90.4633 240.121 85.3339 239.204 80.5715 241.036C78.5436 241.816 76.1531 241.754 73.9163 241.878C68.7262 242.167 63.725 243.32 58.7714 244.81C57.825 245.095 56.7452 244.909 55.7363 245.021C53.7623 245.24 51.7338 244.509 49.7779 245.71C49.0624 246.148 47.6495 245.978 46.8069 245.568C45.4173 244.894 44.4306 244.994 43.0047 245.637C41.9606 246.107 40.4768 245.811 39.0418 245.162C37.3084 244.378 37.5126 243.302 37.1126 241.99C36.3483 239.486 34.9729 237.172 34.1098 234.691C32.8099 230.951 31.8907 227.115 30.3241 223.423C29.065 220.456 27.4229 217.855 25.6815 215.234C24.718 213.783 22.9993 212.589 24.6181 210.369C25.1753 209.606 24.9489 208.053 24.6873 206.954C23.7937 203.196 22.5164 199.519 21.7793 195.735C20.9759 191.607 21.0264 187.284 19.9483 183.246C18.6586 178.417 19.9494 173.497 18.6166 168.667C17.728 165.449 17.8733 161.921 17.753 158.525C17.6644 156.024 17.8313 153.383 17.4817 151.041C17.1055 148.522 17.6627 145.863 16.8349 143.591C15.2728 139.306 15.7018 134.943 15.2966 130.598C14.9125 126.478 13.751 122.435 13.0718 118.334C12.6638 115.873 12.5254 113.367 12.2655 110.493ZM151.309 203.8C149.72 203.251 148.109 202.754 146.545 202.14C143.42 200.913 140.378 199.448 137.198 198.397C132.05 196.695 126.842 195.165 121.616 193.718C117.409 192.553 113.141 191.602 108.888 190.607C108.447 190.504 107.924 190.747 107.439 190.829C107.621 191.105 107.869 191.356 107.973 191.658C110.007 197.556 112.026 203.459 114.031 209.366C114.334 210.258 112.362 214.157 112.045 213.853C110.077 211.964 108.284 214.053 106.403 213.977C99.18 213.684 92.0277 214.611 84.8363 215.263C77.6278 215.917 70.2701 214.977 62.9817 214.657C61.6522 214.6 60.3386 214.172 59.0194 213.907C57.3098 213.565 56.0376 211.474 55.8799 208.9C55.6484 205.119 55.9066 201.203 54.9896 197.59C53.3617 191.175 52.9322 184.701 52.8232 178.178C52.7687 174.921 52.3926 171.648 53.4275 168.356C53.8928 166.876 52.5866 164.9 52.8822 163.295C53.2641 161.223 52.5588 159.313 52.7262 157.306C52.9197 154.99 52.7869 152.646 52.7642 150.314C52.754 149.298 52.8351 148.239 52.5775 147.278C52.0356 145.261 50.8208 143.376 51.9534 141.153C52.2161 140.639 52.1247 139.844 51.971 139.235C50.8651 134.848 50.4117 130.393 50.4282 125.88C50.4316 124.989 50.5519 124.033 50.2823 123.218C49.3393 120.368 48.7407 117.487 48.8706 114.473C48.9092 113.568 49.1566 112.54 48.8275 111.773C47.464 108.591 47.2892 105.277 47.2898 101.901C47.2898 101.074 46.942 100.244 46.7383 99.4192C46.1572 97.069 45.2062 94.742 45.0649 92.3668C44.8425 88.6343 43.3599 85.2026 42.9542 81.5689C42.6909 79.2067 41.215 77.1158 41.2088 74.9341C41.1963 70.1145 39.8351 65.7596 37.9881 61.4444C37.6114 60.5649 37.2363 59.5946 37.2301 58.6635C37.2051 54.9151 35.9488 51.4913 34.9496 47.9421C33.3041 42.0972 32.6993 35.9436 30.85 30.1781C28.5026 22.8612 27.2617 15.3345 25.5209 7.90472C24.9989 5.67534 24.2493 5.10055 22.1476 5.51363C20.5776 5.8223 18.9967 6.1985 17.4085 6.26659C14.5578 6.38801 11.6981 6.26602 8.84283 6.31198C6.44323 6.35 5.99327 6.9611 5.9927 9.30056C5.9927 10.234 5.53139 11.1662 5.2874 12.1013C5.01277 13.1544 4.4777 14.2223 4.52706 15.2618C4.67062 18.2935 3.62317 21.2963 4.45727 24.3433C5.22442 27.1486 5.47976 30.1429 6.58224 32.7967C9.21222 39.1268 10.1831 45.7582 10.6523 52.4747C10.9491 56.7297 10.41 61.0489 10.7834 65.292C11.2475 70.569 12.4232 75.7807 12.9906 81.0531C13.381 84.684 13.1524 88.337 13.6891 92.0178C14.3814 96.7603 13.5013 101.65 14.5397 106.461C15.144 109.26 15.0112 112.208 15.4056 115.063C16.0972 120.065 16.979 125.041 17.7013 130.04C18.0582 132.51 18.0418 135.046 18.5377 137.481C19.5942 142.669 20.1162 147.887 20.0561 153.172C20.0499 153.69 19.9568 154.231 20.0703 154.724C21.204 159.631 21.5382 164.608 21.6483 169.631C21.7305 173.415 22.1328 177.191 22.391 180.971C22.3995 181.1 22.3626 181.238 22.3961 181.359C23.4061 184.963 23.9877 188.623 23.9718 192.377C23.9684 193.093 24.2799 193.804 24.3895 194.527C24.9041 197.916 26.2239 201.103 26.4077 204.622C26.5553 207.444 27.1153 210.439 28.8159 212.907C31.9259 217.422 34.0718 222.325 35.7179 227.559C36.9333 231.423 38.0477 235.355 40.0081 239.002C41.1152 241.061 42.3022 241.881 44.6399 241.959C52.7472 242.229 60.6802 241.212 68.6082 239.624C73.9385 238.555 79.3777 238.034 84.7625 237.229C89.767 236.485 94.7665 235.707 99.7604 234.895C106.356 233.817 112.947 232.75 119.067 229.807C121.398 228.687 123.519 229.533 124.838 231.864C125.038 232.217 124.822 233.258 124.676 233.284C123.149 233.552 123.413 234.113 124.16 235.071C124.66 235.712 124.907 236.566 125.208 237.347C127.11 242.264 128.67 247.327 131.44 251.875C131.905 252.638 132.299 253.444 132.725 254.231C133.184 253.513 133.583 252.748 134.118 252.092C134.689 251.392 135.398 250.807 136.027 250.153C137.363 248.765 138.66 247.341 140.019 245.976C143.967 242.014 147.784 237.905 151.945 234.178C155.355 231.123 159.222 228.583 162.814 225.725C166.054 223.146 169.131 220.36 172.399 217.82C175.833 215.149 179.805 213.172 182.698 209.803C183.114 209.318 183.622 208.91 184.086 208.466C184.456 208.111 184.825 207.755 185.194 207.4C184.762 207.237 184.332 206.937 183.898 206.931C179.319 206.871 174.769 206.815 170.187 206.25C166.115 205.747 162.018 205.509 157.99 204.608C156.059 204.176 154.058 204.06 151.309 203.8ZM124.435 242.289C124.435 242.045 124.487 241.787 124.424 241.56C124.314 241.166 124.132 240.793 123.981 240.411C123.873 240.732 123.66 241.06 123.682 241.373C123.712 241.814 123.916 242.244 124.435 242.289Z" fill="#EA0000"/>
</svg>
