<svg width="88" height="63" viewBox="0 0 88 63" fill="none" xmlns="http://www.w3.org/2000/svg">
<g id="BEHTEL" opacity="0.9">
<path id="Vector" d="M3.39266 55.1873L84.6073 29.2345C86.4663 28.6346 88 26.8351 88 25.223V9.03644C88 7.43372 86.4663 6.59956 84.6073 7.19941L3.39266 33.1522C1.52205 33.7521 0 35.5516 0 37.1637V53.3503C0 54.953 1.52205 55.7872 3.39266 55.1873Z" fill="white"/>
<path id="Vector_2" d="M40.3635 21.3522C39.6431 20.2462 39.6664 18.6903 39.7826 17.9499C39.922 16.9939 40.5378 16.1503 40.7469 15.1943C40.8747 14.6039 40.8863 13.9478 40.4565 13.5073C40.1311 13.1698 39.6431 12.57 39.4689 12.092C39.3062 11.6515 38.9344 11.5203 38.4116 11.5952C37.7261 11.6983 37.0289 11.0235 36.3667 11.061C35.6696 11.0985 35.4604 11.6983 34.8214 11.9233C34.5542 12.017 34.4264 12.3544 33.9732 12.1763C33.8222 12.1107 33.3458 11.7077 33.2064 11.8014C32.8346 12.0639 33.0321 12.4482 32.5441 12.9824C31.9748 13.5916 30.9059 13.8634 30.081 14.229C29.3955 14.5289 28.617 14.6788 27.9896 15.035C25.9679 16.1691 25.8169 14.9506 27.6991 14.6976C28.3149 14.6226 28.5821 14.004 29.0934 13.6666C29.3838 13.4698 29.3722 13.0949 29.2444 12.7668C29.0818 12.3732 28.8029 11.9889 28.1871 11.6046C27.9199 11.4453 27.9199 11.0235 28.4543 10.9298C28.7913 10.8736 29.1747 10.6017 29.2096 10.3206C29.2444 10.0769 28.6519 9.98315 28.6286 9.56138C28.6054 9.22397 29.0818 9.13961 29.3838 8.9053C29.8951 8.52102 30.4179 8.96153 30.7432 8.68973C31.0686 8.41792 30.4063 7.96803 30.7781 7.73372C31.8702 7.03077 32.8578 6.03727 34.1475 5.56864C34.6587 5.37181 35.077 5.57801 35.6579 5.70923C36.2505 5.84044 37.1451 5.67174 37.7958 5.77484C38.3302 5.85919 39.0971 5.52177 39.4805 5.2406C40.2822 4.65012 41.5602 4.45329 42.3387 5.04481C42.5943 5.25101 43.0358 5.12917 43.3844 5.21352C43.8723 5.33536 44.3151 5.61654 44.8251 5.66341C45.3247 5.71027 45.8243 5.50407 46.3239 5.52282C46.7886 5.53219 47.2069 5.7665 47.66 5.75713C48.1015 5.74776 48.5314 5.33536 48.9381 5.47595C49.5655 5.68215 50.1464 6.06643 50.402 6.49757C50.5415 6.73189 51.2851 6.76 51.3548 6.53506C51.4826 6.19765 51.4593 5.4947 52.1332 5.66341C52.9582 5.86023 53.4578 6.46008 54.0503 6.94746C54.2943 7.14428 54.6545 7.41609 54.3524 7.91284C54.2246 8.12841 54.4918 8.3721 54.7474 8.49394C54.9914 8.60641 55.2819 8.10029 55.5607 8.05343C56.0371 7.97845 56.56 8.39084 56.6645 8.71889C56.7459 8.97195 56.2462 9.35623 55.9093 9.51556C54.9682 9.96545 54.12 10.256 53.4113 10.8829C53.0395 11.2297 53.2951 11.8671 53.4694 12.2513C53.7018 12.7481 54.6196 12.8699 55.1541 13.1792C55.8745 13.5822 56.4786 14.0415 57.2455 14.3695C57.6637 14.557 58.3144 14.8757 58.6397 14.6039C58.9534 14.3602 58.2679 13.9665 58.175 13.6197C58.1052 13.3292 57.9542 12.9543 58.175 12.72C58.5932 12.2982 58.233 11.6046 58.4073 11.0797C58.5584 10.6017 59.1625 10.9579 59.5692 11.0704C59.8597 11.1454 60.2431 10.9485 60.4987 11.0329C61.2307 11.2578 61.4282 11.9701 61.9394 12.4388C62.4739 12.9355 62.195 13.5448 62.7192 14.2008L72.4311 11.0891C65.3785 4.70636 55.1192 0.666748 43.7445 0.666748C22.5753 0.666748 5.32153 14.5945 5.32153 31.6621C5.32153 31.9526 5.32153 32.2432 5.33315 32.5337L6.44855 32.1776C6.71578 22.177 11.2935 16.0191 17.2655 11.1172C18.9154 10.9392 20.0076 10.433 20.9022 10.0488C21.2972 9.88005 21.7968 10.0581 22.2267 10.1144C22.8425 10.1893 23.5977 10.105 24.0509 10.4518C24.504 10.8079 23.9695 10.9954 23.6326 11.1922C22.7496 11.689 21.9944 12.1295 21.4018 12.3919C20.9487 12.5887 20.147 13.6479 20.6582 13.6666C21.425 13.7041 21.7387 14.0602 20.6582 14.6039C19.6822 15.1006 19.1478 15.8785 18.5901 16.6846C18.3809 16.9845 18.4274 17.35 18.4274 17.6875C18.4274 18.1186 18.532 18.5404 18.5901 18.9621C18.6714 19.6463 18.4739 20.2274 17.7652 20.5086C17.0448 20.7898 16.3825 21.0522 16.1966 20.3774C15.8248 19.084 16.2315 18.2592 16.7659 17.6875C17.2423 17.2001 16.2663 16.6002 15.7784 17.0876C15.5808 17.2844 15.0929 17.8468 14.8721 17.4906C14.6746 17.1813 13.6521 18.4748 12.9666 19.1683C11.9907 20.1525 11.8396 21.399 11.3168 22.5893C11.34 22.9924 11.584 23.2079 12.0604 23.2548C12.2463 23.0767 12.4438 22.8986 12.6297 22.7206C12.5251 23.8547 12.2347 24.8013 11.979 25.598C11.5027 27.0695 10.1317 27.3788 9.6553 28.4191C9.08599 29.6751 9.07437 30.6217 9.22541 31.2965L12.1766 30.3593C12.3741 30.0125 12.5367 29.6563 12.5948 29.2814C12.711 28.5503 12.9318 27.8661 13.1061 27.1538C13.9426 27.7443 14.9302 27.51 15.6273 27.6881C16.2547 27.8474 16.6149 28.3254 16.9286 28.8409L40.3635 21.3522ZM56.223 38.2885C56.223 39.4226 56.5019 40.6504 57.687 41.4284C59.1393 42.375 59.1045 41.9626 59.5692 42.4219C60.0223 42.8811 60.185 44.6807 60.0339 46.0866C59.8945 47.4924 59.5343 48.8046 58.7443 50.0699C57.9658 51.3352 58.3608 52.563 58.1866 53.6784C58.0007 54.7937 57.199 53.8752 57.2687 55.6466C57.3384 57.4181 57.1409 56.7339 57.3152 57.3243C57.4894 57.9054 57.6521 58.3085 58.2795 58.2429C58.9069 58.1679 59.0115 57.3243 59.453 56.9588C59.8945 56.5839 60.3476 56.4808 60.6033 56.0215C60.8589 55.5623 60.336 54.5407 60.7892 54.2689C61.2307 54.0064 62.6714 52.8161 63.1013 52.2819C63.5312 51.757 62.9502 51.5695 63.2872 51.4383C63.8814 51.1921 64.4102 50.8546 64.8441 50.4448C65.3669 49.9293 66.2848 50.2949 66.9238 49.5263C67.5629 48.7578 66.5056 48.8046 67.0516 48.3547C67.5977 47.9142 68.1438 48.5609 69.8982 47.2956C71.6526 46.0303 70.5489 45.9647 71.397 45.2899C72.2452 44.615 74.0229 44.1183 74.8362 43.181C75.6611 42.2438 75.0918 41.1097 75.6495 40.0693C76.2072 39.0196 78.5425 38.2135 78.1359 36.9951C77.7408 35.7766 75.266 35.4674 74.3365 34.5207C73.8021 33.9771 73.5349 33.4054 73.3141 32.8336L82.1095 30.0312C82.1443 30.5655 82.1663 31.1091 82.1663 31.6621C82.1663 48.739 64.9009 62.6667 43.7432 62.6667C32.0084 62.6667 21.4818 58.3835 14.4177 51.6633L21.7026 49.3295C22.4578 49.845 23.4454 50.323 23.8637 50.9884C24.2819 51.6352 24.096 52.4131 23.9799 53.2379C23.9101 53.6596 24.0844 53.9783 24.5259 54.2033C24.8977 54.3907 25.2812 54.1564 25.7343 54.0627C25.9202 54.0252 25.8505 54.3813 26.1409 54.3813C27.1401 54.3907 27.9418 53.7909 28.9062 53.7346C29.7195 53.6971 30.3469 54.0439 30.8581 54.4095C31.1021 54.5688 31.1951 55.0374 31.5088 55.0749C31.8689 55.1218 32.1478 54.7083 32.508 54.6625C32.752 54.6438 33.1121 54.7844 33.1586 54.9718C33.2051 55.1686 32.6939 55.4498 32.8565 55.5998C33.1238 55.8528 33.4375 56.0684 33.6582 56.4433C33.8209 56.7151 34.0997 56.3215 34.4715 56.3788C34.8317 56.4256 35.0409 56.6787 35.4707 56.7058C35.9239 56.7339 36.226 56.3121 36.4699 56.0122C36.7372 55.6935 37.1903 55.6654 37.4227 55.253C37.5505 55.0374 37.8061 54.9437 38.0152 54.7844C38.1663 54.6719 38.5962 54.4282 38.5962 54.147C38.5846 53.7346 38.6078 53.5378 38.5846 53.1254C38.5497 52.4964 38.4103 51.9632 38.0385 51.4102C37.6899 50.9041 37.0393 50.7541 36.6907 50.173C36.5397 49.9106 36.7256 49.4888 36.6326 49.217C36.5513 49.0014 35.9936 48.8504 36.0749 48.6349C36.2143 48.2318 35.8077 48.0725 35.8425 47.7351C35.8774 47.3227 35.5985 46.8822 35.3662 46.9853C34.7852 47.2571 34.274 47.9225 34.0184 48.5234C33.9138 48.7859 33.635 49.1233 33.2864 49.1327C32.7984 49.142 32.2988 48.7578 31.9619 48.4672C31.2764 47.8955 30.7187 47.2675 30.1494 46.6302L56.223 38.2885Z" fill="#333333"/>
<path id="Vector_3" d="M14.5704 22.6082C13.2923 23.1424 12.6417 24.8014 13.2575 26.0479C13.699 26.9571 14.6517 26.9102 15.0235 26.1323C15.2326 25.6918 15.1746 25.12 15.0235 24.5764C14.8376 23.9016 14.1173 24.1546 14.5704 22.6082ZM42.0834 55.7217C42.3042 55.5342 42.5714 55.8248 42.7341 56.2091C42.8038 56.3684 43.1872 56.2278 43.3266 56.3403C43.5241 56.4902 43.9075 56.8558 43.6519 56.9401C43.1872 57.0807 42.7341 57.4462 42.5133 57.6618C42.3274 57.8493 41.9905 57.2213 42.0834 56.9401C42.1415 56.7527 42.2112 56.6496 42.1647 56.434C42.1066 56.1528 41.8394 55.9279 42.0834 55.7217ZM40.8054 57.8118C41.1074 57.5212 41.5838 57.9805 41.5954 58.2335C41.607 58.9365 40.8867 59.1989 40.3987 59.2645C40.4568 59.6769 39.9339 59.6113 39.4808 59.4614C38.7721 59.2364 39.0974 58.4585 39.5273 58.6272C39.6551 58.6741 40.4916 58.1211 40.8054 57.8118ZM5.05469 50.8104L5.2522 35.7111C7.5527 35.0082 9.86482 34.2958 12.1769 33.5835C13.6757 33.0961 15.0932 33.4617 15.1978 34.9144C15.1746 36.236 15.1629 37.5669 15.1397 38.8884C15.0119 39.91 14.4193 40.4349 13.5015 40.6317C14.3264 40.6505 15.0119 40.8942 15.0467 41.5503V45.7773C14.977 47.4269 14.1405 47.9893 12.816 48.3923L5.05469 50.8104Z" fill="#333333"/>
<path id="Vector_4" d="M8.57422 47.0806L8.62069 43.4533L11.8042 42.5817L11.7577 46.0496L8.57422 47.0806ZM8.65555 40.9415L8.70202 37.6142L11.8855 36.5925L11.8391 39.9105L8.65555 40.9415Z" fill="white"/>
<path id="Vector_5" d="M17.9043 46.7993L18.1005 31.7374L25.8631 29.3662L25.8282 32.4029L21.4829 33.6682L21.4351 36.8924L25.4797 35.674L25.4564 38.2327L21.4015 39.5074L21.355 43.1252L25.8399 41.6631L25.805 44.3811L17.9043 46.7993ZM64.3906 32.4216L64.5998 17.3692L72.361 14.9885L72.3146 18.0346L67.9692 19.3L67.9227 22.5241L71.9776 21.3057L71.9428 23.8644L67.8879 25.1391L67.8414 28.7569L72.3262 27.2948L72.2913 30.0129L64.3906 32.4216ZM75.1495 14.1637L74.952 29.0288L82.7714 26.5638L82.8062 23.9488L78.4609 25.3734L78.6235 13.114L75.1495 14.1637ZM53.3761 20.8839L62.9732 17.9222L62.9383 20.7715L59.6037 21.8493L59.4411 33.8275L56.1878 34.8492L56.3505 22.7585L53.3529 23.7238L53.3761 20.8839ZM41.4786 24.5486L45.0223 23.452L44.9526 29.0475L48.1593 28.1384L48.2291 22.496L51.796 21.3713L51.5985 36.33L48.0664 37.3798L48.1477 31.2407L44.8351 32.2061L44.7551 38.3733L41.2578 39.5167L41.4786 24.5486ZM28.8723 30.6971C29.0234 29.0662 29.918 28.1758 31.2193 27.7166C32.6716 27.2667 34.1356 26.8168 35.5879 26.3669C37.4237 25.6265 38.8876 26.3763 38.8295 27.8665L38.7947 30.6127C37.6328 30.9783 36.4709 31.3344 35.2975 31.7C35.3091 31.147 35.3207 30.6034 35.3207 30.0597C35.3439 29.6661 35.2858 29.3568 34.6817 29.5911C34.0543 29.7786 33.4152 29.966 32.7878 30.1535C32.3115 30.3034 32.1837 30.594 32.1953 30.847L32.0907 39.1793C32.0791 39.6948 32.2301 39.8729 32.7297 39.7136C33.4617 39.4511 34.1937 39.1793 34.914 38.9169C35.158 38.7669 35.3439 38.542 35.3556 38.1577L35.3904 36.1051C36.5058 35.7771 37.6212 35.4584 38.7366 35.1397C38.7134 36.2082 38.7017 37.2871 38.6901 38.3639C38.8295 39.648 37.7722 40.4071 36.3896 41.0351C34.7514 41.5412 33.1248 42.0473 31.4865 42.5628C29.8134 43.0034 28.7329 42.6659 28.7329 40.9695L28.8723 30.6971Z" fill="#333333"/>
</g>
</svg>
