<svg width="35" height="47" viewBox="0 0 35 47" fill="none" xmlns="http://www.w3.org/2000/svg">
<path id="Vector" d="M30.8335 27.2118C28.6794 30.4606 26.5503 33.4968 24.2899 36.4304C22.8578 38.2891 21.2035 39.9727 19.6982 41.7766C18.5658 43.1335 17.524 44.5667 16.4132 45.9423C16.1671 46.2472 15.7994 46.4528 15.4878 46.704C15.319 46.3707 15.0547 46.0525 14.9989 45.7012C14.8107 44.5143 14.6676 43.3182 14.5589 42.1209C14.1382 37.4872 12.3545 33.2866 10.2146 29.2729C9.09839 27.1798 7.4502 25.3539 5.92518 23.5053C3.65694 20.756 2.06433 17.7136 0.815255 14.3481C-0.0516559 12.0124 0.593369 9.92484 0.521309 7.72093C0.454671 5.68436 1.06212 4.2395 2.19405 2.70968C4.29501 -0.129502 6.72142 0.117655 9.49197 1.77591C11.2613 2.83485 12.7546 4.26825 13.4057 6.38003C13.5148 6.73369 13.9172 6.99615 14.184 7.3008C14.2572 6.96222 14.2962 6.61123 14.4133 6.28891C14.5231 5.98646 14.6643 5.66577 14.8794 5.43626C17.9927 2.11621 24.4145 1.19104 28.627 3.43897C33.1698 5.86282 35.0634 10.2641 34.7025 15.6804C34.4214 19.9 33.0401 23.5275 30.8335 27.2118ZM13.425 32.6663L12.949 32.6851C13.1179 32.7641 13.2867 32.8433 13.4862 33.1785L13.7029 33.8138L14.0233 33.6717C13.834 33.422 13.6447 33.1723 13.425 32.6663ZM12.1018 30.2273L12.5778 30.2084C12.409 30.1292 12.2401 30.0502 12.0406 29.7151C11.4296 27.9947 10.8311 26.2693 10.1908 24.5599C10.1146 24.3563 9.81026 24.239 9.61167 24.0817C9.54179 24.3553 9.35729 24.6597 9.4203 24.8978C9.92048 26.786 10.8897 28.4369 12.1018 30.2273ZM9.94004 3.4756L9.46406 3.49442C9.63297 3.57359 9.80171 3.65261 10.0012 3.9878C10.8118 5.71171 11.6122 7.44067 12.4471 9.1525C12.5382 9.33913 12.8287 9.42746 13.0268 9.56131C13.0721 9.32739 13.1768 9.08739 13.1535 8.8605C12.9244 6.63351 11.6318 5.06497 9.94004 3.4756ZM8.00995 21.8857L8.22692 22.5211L8.54706 22.3789C8.35795 22.1291 8.16867 21.8794 7.9488 21.3735C7.87839 20.7837 7.91052 20.1577 7.71886 19.6109C7.09215 17.8241 7.02858 15.7951 5.56125 14.3591C5.32225 14.1252 5.05761 13.9176 4.80493 13.6979C4.86349 14.0818 4.86089 14.4881 4.99092 14.8457C5.77588 17.0049 7.39394 18.843 7.44683 21.2937C7.44938 21.4093 7.79416 21.5178 8.00995 21.8857ZM26.3454 22.034C25.4933 21.1026 24.8346 21.8082 24.6647 22.491C24.3217 23.869 24.2481 25.3183 24.1205 26.7435C24.108 26.8825 24.482 27.0764 24.6984 27.2084C24.7883 27.2631 25.0379 27.2438 25.0424 27.2221C25.4079 25.4355 27.349 24.1241 26.8541 21.9733C27.8094 21.0207 28.5757 18.3599 28.1028 17.5144C28.0685 17.4531 27.6231 17.5048 27.4993 17.6322C26.282 18.8876 26.2741 20.4142 26.3454 22.034ZM12.6695 17.6934L13.0531 19.8521C13.1654 19.809 13.3792 19.7462 13.3753 19.726C13.2241 18.951 13.0537 18.1795 12.8746 17.4104C12.8725 17.4015 12.7208 17.4276 12.6084 17.1813C12.6645 16.212 12.8532 15.2267 12.7399 14.2776C12.6266 13.3286 12.2546 12.3993 11.9195 11.49C11.2014 9.54223 10.4589 7.60269 9.66132 5.68706C9.53371 5.38029 9.06967 5.21502 8.76111 4.98452C8.7466 5.39093 8.5949 5.85637 8.73901 6.19467C10.2022 9.63302 11.5525 13.0998 12.0729 16.8374C12.1038 17.0594 12.4431 17.2384 12.6695 17.6934ZM23.6171 14.3089L24.1067 15.0294C24.2915 14.8232 24.6495 14.6004 24.6318 14.4134C24.5478 13.5337 24.8312 12.9677 25.7119 12.7601C25.8095 13.4384 25.9704 14.1161 25.9796 14.7955C25.9845 15.1652 25.6628 15.5286 25.6118 15.9116C25.5368 16.4739 25.5404 17.0538 25.5882 17.6196C25.5974 17.7285 25.9588 17.855 26.1688 17.8812C26.2859 17.8959 26.5272 17.7346 26.5411 17.6295C26.7397 16.1242 27.0596 14.6125 27.0331 13.1077C27.0152 12.0906 26.5031 11.0806 26.2048 10.0697C26.1141 9.76204 25.999 9.46161 25.8951 9.15768C25.6809 9.38991 25.4152 9.59297 25.2655 9.86152C25.0756 10.2027 24.8411 10.6074 24.8682 10.9666C24.9657 12.2558 24.549 13.0493 23.168 13.1125C23.2973 13.3405 23.4266 13.5686 23.6171 14.3089ZM33.2635 17.3124C33.8794 15.4959 33.9074 13.6327 33.6159 11.7633C33.5314 11.2219 33.261 10.7048 33.0388 10.1927C32.9788 10.0547 32.7829 9.97639 32.6493 9.8705C32.5736 10.0027 32.4288 10.1368 32.4324 10.2667C32.5262 13.6031 32.6922 16.9399 32.087 20.2531C32.0599 20.4008 32.3366 20.6051 32.4718 20.7831C32.6794 20.595 33.0293 20.4331 33.069 20.2138C33.2109 19.4279 33.2479 18.6226 33.2635 17.3124ZM15.9249 14.7077C16.0262 15.5558 16.3703 16.4709 16.1633 17.2338C15.9358 18.0728 17.0379 18.2814 16.6797 19.1915C16.4561 19.7598 17.0159 20.6482 17.244 21.3866C17.3131 21.6102 17.4483 21.8131 17.5532 22.0254C17.6201 21.8109 17.7665 21.5867 17.7419 21.3833C17.2618 17.4274 17.0942 13.4036 15.3215 9.71969C15.2031 9.47348 14.9774 9.27925 14.8017 9.0609C14.7522 9.37098 14.5987 9.70814 14.6707 9.98639C15.0362 11.3979 15.4602 12.794 15.9249 14.7077ZM7.84399 3.2065C7.0329 2.37616 6.10857 1.80684 4.93166 2.28801C4.6574 2.40026 4.3393 2.93224 4.38403 3.2169C4.65603 4.94511 5.01382 6.66041 5.3753 8.37327C5.45639 8.75743 5.62832 9.13757 5.8335 9.47341C5.93035 9.63202 6.20434 9.68098 6.39808 9.77968C6.43528 9.62574 6.52796 9.46117 6.5011 9.31937C6.20547 7.76449 5.85634 6.21882 5.60603 4.65702C5.54157 4.25422 5.70088 3.76519 5.90074 3.39416C5.98333 3.2408 6.49732 3.1746 6.71939 3.27776C7.14951 3.47758 7.64245 3.79623 6.97169 4.32281L7.65823 5.04653C7.74052 4.60386 7.82282 4.1612 7.84399 3.2065ZM9.73932 19.082C9.67265 19.0293 9.61241 18.9599 9.53671 18.9299C9.49156 18.9119 9.37026 18.9628 9.37126 18.9711C9.45375 19.5998 9.42304 20.2778 9.65647 20.8461C10.7098 23.4107 12.2694 25.7442 12.9807 28.4803C13.1441 29.1095 13.983 29.5618 14.5111 30.0956C14.3546 29.4153 14.3166 28.6772 14.0216 28.0642C12.6535 25.2218 11.2142 22.4143 9.73932 19.082ZM17.0843 11.4527C17.3903 11.135 17.8633 10.8667 17.9729 10.4907C18.399 9.02793 19.2527 8.19034 20.8049 8.14853C21.0566 8.14182 21.3926 8.18237 21.5391 8.04205C21.7976 7.79385 21.9405 7.42345 22.1316 7.10429C21.7777 6.92354 21.3886 6.54633 21.0769 6.60205C20.3915 6.72471 19.7453 7.06653 19.0829 7.31844C16.833 8.17438 16.7303 8.35481 17.0843 11.4527ZM17.616 26.7121C17.8073 27.5944 17.9637 28.4868 18.2086 29.3537C18.2977 29.6689 18.5984 29.9238 18.8027 30.2063C18.938 29.8864 19.2 29.5622 19.1889 29.2473C19.0882 26.403 17.5663 24.1067 16.2441 21.7372C16.1482 21.5654 15.997 21.4248 15.8717 21.2698C15.8346 21.5037 15.7086 21.7671 15.7743 21.9669C16.2721 23.4803 16.8074 24.9814 17.616 26.7121ZM23.9666 34.5243C24.5384 33.7925 25.1883 33.1079 25.6612 32.3162C26.1857 31.4379 26.5703 30.4706 26.9616 29.5195C27.0298 29.3536 26.8297 29.0753 26.7535 28.849C26.6409 28.9088 26.4811 28.9391 26.4224 29.0331C25.2614 30.8949 23.9843 32.7009 23.0269 34.6647C22.6738 35.3888 23.4021 35.6249 23.9666 34.5243ZM20.7055 5.04721C21.4537 4.7847 22.2036 4.52685 22.9487 4.25589C23.0929 4.20334 23.2187 4.09999 23.3531 4.02011C23.1983 3.85692 23.0661 3.5917 22.8841 3.55042C22.4232 3.44611 21.8631 3.26282 21.4788 3.42903C19.7568 4.17429 18.0773 5.02081 16.3976 5.86135C16.2206 5.94981 16.143 6.23957 16.0194 6.436C16.2509 6.4782 16.5201 6.61889 16.7078 6.54648C17.881 6.09342 19.0359 5.59271 20.7055 5.04721ZM16.0495 28.7171C15.9824 28.664 15.9218 28.594 15.846 28.5642C15.8007 28.5465 15.6794 28.5936 15.6798 28.6091C15.7002 29.276 15.7001 29.9457 15.766 30.6088C15.8849 31.8038 15.9909 33.0053 16.2203 34.1809C16.2859 34.5176 16.7575 34.7746 17.043 35.0682C17.101 34.77 17.2458 34.4585 17.2027 34.1757C16.9368 32.4279 16.6285 30.6863 16.0495 28.7171ZM2.35161 15.549C2.45255 15.6739 2.58423 15.7849 2.64813 15.9266C2.80511 16.2744 2.93085 16.6362 3.06898 16.9924C3.10723 16.674 3.22903 16.3391 3.17013 16.0398C2.80199 14.1657 2.40068 12.2979 1.98605 10.4336C1.94996 10.2712 1.73811 10.1483 1.60777 10.0071C1.56749 10.1602 1.47793 10.3189 1.4943 10.4658C1.67568 12.0862 1.87334 13.7044 2.35161 15.549ZM16.0309 39.3673C15.9305 39.2454 15.7953 39.1382 15.7361 38.9986C15.5838 38.6398 15.4651 38.2665 15.333 37.8991C15.2864 38.2093 15.1745 38.5258 15.2042 38.8286C15.3271 40.0868 15.463 41.3454 15.6627 42.5929C15.7144 42.9166 16.0144 43.2004 16.2003 43.5024C16.3489 43.12 16.6309 42.7335 16.6191 42.3559C16.5905 41.4328 16.4258 40.5138 16.0309 39.3673ZM16.7634 39.0201L17.2922 40.2555C17.4957 40.1439 17.8674 40.0452 17.8768 39.9186C17.9598 38.7991 18.0058 37.6743 17.9857 36.5524C17.983 36.3965 17.5606 36.2476 17.3325 36.0955C17.2205 36.2796 17.0489 36.4512 17.0074 36.6503C16.879 37.2638 16.8003 37.8881 16.7634 39.0201ZM13.2809 22.8146C13.2605 22.644 13.2852 22.4501 13.2119 22.307C12.9222 21.7429 12.6019 21.195 12.2927 20.641C12.266 21.2636 12.1399 21.9031 12.2422 22.5036C12.3324 23.034 12.6461 23.5385 12.9179 24.0223C13.2149 24.551 13.5772 25.0426 13.9109 25.5504C13.8554 24.9155 13.8195 24.2778 13.7278 23.6481C13.7099 23.5249 13.4762 23.4331 13.2809 22.8146ZM4.97723 18.0924C5.30019 19.358 5.59874 20.631 5.97217 21.8815C6.03024 22.0755 6.43097 22.1664 6.67331 22.3049C6.7676 22.104 6.99305 21.8476 6.93571 21.7109C6.38474 20.3977 5.78605 19.1047 4.97723 18.0924ZM22.3344 10.0469C21.8078 10.524 21.2598 10.9807 20.7741 11.4966C20.6845 11.5916 20.8464 11.9264 20.8922 12.1505C21.0579 12.0494 21.2133 11.8931 21.3916 11.8597C21.6694 11.8075 21.9629 11.8431 22.2496 11.8334C22.5801 11.8221 22.7004 11.6478 23.11 10.24C23.1771 10.0095 24.0854 9.71773 23.1592 9.4503C23.0011 9.40468 22.7606 9.64973 22.3344 10.0469ZM28.4589 5.1604C28.0127 6.79335 30.2069 6.70722 30.2858 7.99848C30.3798 7.8986 30.5629 7.78956 30.5536 7.70034C30.484 7.02347 30.5063 6.28897 30.23 5.70062C30.0765 5.37345 29.4054 5.2919 28.4589 5.1604ZM23.2538 30.7137C23.5373 30.154 23.8808 29.6147 24.0785 29.0254C24.1728 28.7443 23.9898 28.3687 23.9323 28.0357C23.5524 28.1412 22.8505 28.2312 22.8448 28.3547C22.8078 29.1589 21.7835 29.9461 23.2538 30.7137ZM20.6062 19.343L21.2095 21.5227C21.1784 20.7807 21.1705 20.0368 21.1103 19.297C21.0484 18.5357 20.9765 17.7698 20.8175 17.0254C20.7748 16.826 20.3981 16.6983 20.1748 16.5377C20.0665 16.8028 19.8178 17.107 19.8782 17.3249C20.0233 17.8484 20.3135 18.3315 20.6062 19.343ZM29.4394 26.3394C29.7634 25.4527 30.2378 24.5865 30.3601 23.6721C30.445 23.0378 30.0452 22.337 29.862 21.6659C29.8612 22.2366 29.9419 22.8223 29.8415 23.3745C29.6733 24.2988 29.3896 25.2018 29.4394 26.3394ZM4.06013 10.4106C4.29062 10.9016 4.51737 11.3946 4.75302 11.8831C4.96137 12.3147 4.4797 13.2724 5.49803 13.0273C5.68649 12.982 5.74995 12.0671 5.72092 11.562C5.69522 11.1139 4.62458 10.1879 4.06013 10.4106ZM7.47942 13.1189L7.77654 14.2817C8.03614 14.0175 8.46237 13.7843 8.51712 13.4822C8.60255 13.0104 8.5354 12.4479 8.34128 12.0094C8.21696 11.7287 7.74781 11.6024 7.43332 11.4068C7.4283 11.8067 7.4233 12.2068 7.47942 13.1189ZM3.89628 4.71664L3.16329 4.02498C2.91106 4.41876 2.50078 4.79808 2.46428 5.21144C2.44142 5.47167 2.97861 5.78271 3.26446 6.07092C3.40045 5.71501 3.53643 5.35894 3.89628 4.71664ZM19.9336 13.7098C19.7214 13.2774 20.1862 12.2544 19.1689 12.546C18.429 12.7581 18.8611 13.2415 19.2247 13.6426C19.4175 13.8554 19.4034 14.2469 19.5232 14.5409C19.6481 14.8475 19.8218 15.134 19.974 15.4293C19.9809 15.0268 19.9879 14.6243 19.9336 13.7098ZM29.294 9.99508C29.2838 9.91012 29.3037 9.79925 29.2577 9.74524C29.1402 9.60744 28.9932 9.49498 28.8582 9.37227C29.0165 10.0539 29.1538 10.7418 29.3551 11.4105C29.3861 11.5138 29.7096 11.5283 29.8978 11.5838C29.9127 11.4239 29.9746 11.25 29.9327 11.1068C29.8435 10.803 29.7001 10.5153 29.294 9.99508ZM13.5842 12.3901L13.949 14.0701C13.9974 13.4935 14.095 12.9155 14.0772 12.3408C14.0651 11.946 13.8928 11.5559 13.7922 11.1638C13.6825 11.2335 13.5017 11.2853 13.4788 11.3772C13.4404 11.5306 13.5029 11.7096 13.5842 12.3901ZM22.7219 15.4544L22.0465 14.756L21.6648 15.2444C21.9426 15.4099 22.2205 15.5754 22.7219 15.4544ZM22.9054 16.9908C22.8387 16.938 22.7785 16.8687 22.7029 16.8387C22.6578 16.8207 22.5363 16.8719 22.5375 16.8798C22.6002 17.3386 22.6723 17.796 22.7433 18.2535C22.8923 17.9079 23.0413 17.5623 22.9054 16.9908ZM29.1521 13.1285L29.4817 13.297C29.4464 13.1454 29.4111 12.9938 29.1521 13.1285ZM7.68468 23.4827L8.01445 23.6512C7.97915 23.4995 7.94384 23.3479 7.68468 23.4827Z" fill="#EA0000"/>
</svg>
