<svg width="88" height="103" viewBox="0 0 88 103" fill="none" xmlns="http://www.w3.org/2000/svg">
<g id="RobotTrazo-SIAFI 1" clip-path="url(#clip0_151_889)">
<path id="Vector" fill-rule="evenodd" clip-rule="evenodd" d="M55.4801 17.6193C63.1234 20.0911 68.4257 26.0837 69.9712 31.6711C70.3292 32.9624 70.5788 34.459 70.686 35.814C70.6454 36.7588 70.6047 37.7037 70.564 38.6485C71.1429 39.4801 72.4527 40.1721 73.1007 41.0877C75.1019 43.9174 74.3748 48.9303 71.1543 51.259C70.4173 51.7922 69.1068 52.2696 68.1539 52.3474C67.8942 52.3683 66.4631 52.141 66.3562 52.2194C66.0116 52.4762 65.2095 54.3571 64.8159 54.8201C63.4066 56.4764 61.4183 57.695 59.3044 57.9618L59.3743 58.0997C59.7372 59.4279 60.6344 60.4111 60.5027 62.0329C63.5941 63.4976 65.1138 68.0295 65.1163 71.13C65.1171 71.9198 64.0148 74.4797 64.0653 74.6956C64.3868 75.1517 65.0315 75.4116 65.4196 75.8283C66.3296 76.805 66.9979 78.3664 66.9973 79.7935C66.9958 82.6812 64.7474 84.8173 62.7761 84.9668C61.9697 85.0281 61.3497 84.4206 60.6648 84.3913C59.7762 84.3522 58.5776 84.6654 57.4827 83.9257C54.4835 81.8978 55.1883 76.7045 58.4682 74.9348C59.1531 74.5655 60.1034 74.1956 60.9172 74.126C61.2515 74.1587 61.5857 74.1913 61.92 74.224C62.0966 74.1621 62.082 73.9535 62.1937 73.7386C62.2237 72.9436 62.2537 72.1486 62.2838 71.3535C62.126 69.4731 61.3684 66.5487 59.4517 65.5984L56.123 75.7776C55.4926 77.7054 54.9611 79.9308 53.9773 81.2847C51.7512 84.3464 48.5493 85.4088 43.9355 83.8647C43.3483 84.6523 43.0212 86.2808 42.6768 87.3623C42.4483 87.7092 42.2199 88.0561 41.9915 88.403C43.7892 89.5673 44.7269 91.9082 44.8915 93.9504C44.9387 94.5468 44.7549 96.4076 44.6297 96.5092C44.6154 96.5199 43.7947 97.3844 43.4591 97.2762C41.2095 96.5467 36.6966 95.0832 32.1268 93.5965C31.9939 93.5531 31.7655 93.5106 31.728 93.4661C31.2929 92.9636 31.1978 91.7306 31.261 91.3312C31.3705 90.6542 31.446 90.245 31.1832 89.8111C31.0637 89.6141 30.6833 89.502 30.56 89.6073C30.3702 89.7706 30.2384 89.9344 30.0446 90.1286C29.8485 90.3251 29.5674 90.6455 29.4612 90.8577C29.3597 91.0605 29.2579 91.2357 29.1876 91.343C29.088 91.4929 28.8916 91.7184 28.81 91.7944C28.6702 91.9266 28.489 92.3073 28.2946 92.3158C28.1467 92.3226 27.8182 92.16 27.6714 92.112C26.8113 91.8307 25.7205 91.4771 24.5581 91.0985C23.6523 90.8023 22.7694 90.5535 21.9283 90.2708C20.1961 89.689 18.6588 89.1679 18.6347 89.1569C18.219 88.9704 16.0071 88.2992 16.4535 88.4437L16.4874 88.3398C16.066 87.7206 16.1847 86.5606 16.7833 85.6771C17.7711 84.2172 19.3735 83.1193 20.8784 82.6471C21.5412 82.4392 22.6284 82.6399 23.0518 81.9781C22.8457 81.2301 23.4687 79.1373 23.8611 78.4485C24.0217 78.1684 24.0228 77.4804 24.1668 77.5137L22.8165 77.0722C22.4602 76.6567 21.483 76.5978 21.0148 76.253C19.6969 75.2809 18.3623 73.8818 17.8829 72.4695C17.4878 71.3055 17.2503 69.983 17.3079 68.6022C17.3747 66.9914 18.2278 65.0858 18.7984 63.3408L21.9912 53.5771L21.7835 53.5092C21.3155 53.698 20.7813 53.6674 20.2993 53.8287C18.2932 54.4972 16.3262 56.457 15.2132 58.8341C16.7345 60.1686 17.8795 61.5426 18.0394 63.5525C18.3452 67.4038 15.0393 69.5344 12.2661 69.253C11.0406 69.1282 10.5778 68.1338 10.011 67.7108C9.67671 67.6781 9.34245 67.6455 9.0082 67.6128C7.83388 67.0034 7.07559 65.9001 6.81511 64.8261C5.89168 61.0258 10.0847 57.2935 13.2397 58.1887C13.4881 57.3118 13.7365 56.4349 13.985 55.558C15.6146 52.8762 17.9362 50.9572 20.5553 50.2331C21.1805 50.0604 22.0128 49.9294 22.6267 49.8757C22.9233 49.85 23.2784 50.0581 23.5256 49.9397C24.004 49.7098 24.3336 48.9361 24.7622 48.6194C25.528 48.0543 26.6016 47.9638 27.3471 47.3951C25.4678 45.5005 24.3108 42.0347 25.2243 38.7676C21.8142 37.4149 19.9385 32.2653 22.7462 28.4142C24.2417 26.363 26.9128 24.8281 29.7098 25.4024C30.8894 22.8172 32.6119 21.3047 34.3785 19.9155C39.1827 16.1378 46.2261 14.6775 54.1303 17.1764C54.4569 16.2806 54.9673 15.2027 55.0813 14.268C54.0215 13.7681 53.5509 11.4006 54.784 10.6065C55.4548 9.63322 57.4947 9.47091 58.4475 10.6547C58.7547 11.0373 58.8048 11.6577 59.0087 12.103C58.668 13.4587 58.1932 14.3811 57.1228 14.7056C56.8924 14.707 56.662 14.7083 56.4316 14.7096L55.4806 17.6179L55.4801 17.6193Z" stroke="#EA0000" stroke-miterlimit="10"/>
<path id="Vector_2" fill-rule="evenodd" clip-rule="evenodd" d="M56.4456 11.1514C56.1429 11.313 55.9685 11.2836 55.7225 11.6048C55.4527 11.8109 55.4458 12.2256 55.4168 12.5396C55.9252 13.2256 56.9251 13.9465 57.4562 12.6316C57.5736 12.5213 57.528 12.281 57.5562 11.9744C57.41 11.8025 57.2664 11.59 57.1727 11.3891L56.4456 11.1514Z" stroke="#EA0000" stroke-miterlimit="10"/>
<path id="Vector_3" fill-rule="evenodd" clip-rule="evenodd" d="M53.7223 18.4242C52.9625 18.5958 51.7933 17.8256 50.9538 17.7488C49.3969 17.6061 47.7733 17.4048 46.2856 17.2571L46.2516 17.3609L61.5204 22.3539L61.5543 22.25L61.3466 22.1821C60.5308 21.0155 55.7679 19.1069 53.7223 18.4242Z" stroke="#EA0000" stroke-miterlimit="10"/>
<path id="Vector_4" fill-rule="evenodd" clip-rule="evenodd" d="M44.252 18.2016L42.0388 17.9378C41.142 17.9986 40.3193 18.4609 39.4499 18.4709L39.4159 18.5748L39.7276 18.6767C40.9544 18.3098 44.2883 19.7082 45.9917 20.2652L61.5721 25.3601C63.1454 25.8745 64.6001 26.3671 65.591 27.1342C65.8979 27.3725 66.6767 28.0426 66.8055 27.9912C65.9146 26.9135 65.2616 25.7648 63.9193 24.8629C62.2513 23.7425 59.4973 23.1869 57.3395 22.4813L44.252 18.2016Z" stroke="#EA0000" stroke-miterlimit="10"/>
<path id="Vector_5" fill-rule="evenodd" clip-rule="evenodd" d="M41.6371 20.2209C41.1093 20.3442 40.3204 19.9391 39.7694 19.9551C38.244 19.9975 36.6907 20.3925 35.5605 21.2232C32.8808 23.1922 30.8647 31.7157 29.391 36.2223C28.6089 38.614 27.8488 40.7555 28.3898 42.4485C29.8231 46.9399 38.0804 48.2511 44.0199 50.2041C49.1345 51.8858 56.5805 55.6544 59.9341 53.2236C61.9995 51.7267 62.921 47.6053 64.0297 44.215L66.6111 36.3209C67.1867 34.5607 67.7552 33.0189 67.4144 31.7546C66.4889 28.3216 62.7973 27.1404 58.0484 25.5875L41.6371 20.2209Z" stroke="#EA0000" stroke-miterlimit="10"/>
<path id="Vector_6" fill-rule="evenodd" clip-rule="evenodd" d="M41.0494 26.2375C45.0828 27.4844 47.4913 32.5659 44.2508 36.1375C42.9737 37.5442 40.9063 38.2218 38.8013 38.0347C34.1359 37.619 32.2095 31.5131 35.1166 28.2066C36.0199 27.179 37.6818 26.3534 39.01 26.1454C39.6499 26.045 40.4144 26.3931 41.0494 26.2375Z" stroke="#EA0000" stroke-miterlimit="10"/>
<path id="Vector_7" fill-rule="evenodd" clip-rule="evenodd" d="M59.1227 32.1476C63.0301 33.3533 65.6671 38.3456 62.5997 41.9079C61.2777 43.4424 59.279 44.1869 57.0824 44.0129C52.6772 43.6638 50.6463 37.976 53.0201 34.6361C53.9325 33.3509 55.6867 32.2336 57.1871 32.0896C57.8042 32.0308 58.5204 32.2971 59.1227 32.1476Z" stroke="#EA0000" stroke-miterlimit="10"/>
<path id="Vector_8" fill-rule="evenodd" clip-rule="evenodd" d="M68.1652 36.1394C67.5758 37.8246 66.9864 39.5098 66.397 41.195L65.8196 42.9608C65.6857 44.2094 64.9585 46.4474 64.3251 47.5311C63.9748 48.7196 63.6244 49.9081 63.2741 51.0966C62.5179 52.3777 61.8865 53.4835 60.8729 54.2206C57.7975 56.4572 54.6966 55.1903 49.7067 53.5586L36.723 49.3128C32.6583 47.9836 29.7473 47.2188 27.9881 44.7318C25.5196 41.2403 28.025 36.1805 29.8429 30.6214C30.2668 29.3251 31.6666 26.0147 31.4353 25.0484C30.2433 28.1968 28.7973 31.8263 27.7611 35.2295C27.293 36.7689 26.3095 38.684 26.2686 40.1454C26.1876 42.9948 27.0632 45.5163 29.1086 47.2828C30.3195 48.3287 32.2335 48.8795 34.2361 49.5344L42.9611 52.3875C49.1669 54.4168 57.924 58.4517 61.7457 55.7707C64.2102 54.0426 65.0378 52.0321 66.3665 47.9687C66.8864 46.3788 67.3865 44.8591 67.4815 43.5043C67.6221 41.4945 68.0282 39.6619 68.0712 37.8333C68.0861 37.2158 68.3459 36.6416 68.1652 36.1394Z" stroke="#EA0000" stroke-miterlimit="10"/>
<path id="Vector_9" fill-rule="evenodd" clip-rule="evenodd" d="M40.4 27.5198C39.0071 27.9212 38.1613 27.7136 37.1599 28.9897C35.4934 31.1138 36.698 34.9309 39.3028 35.0944C41.5426 35.235 44.2955 32.6952 43.4541 29.7832C43.126 28.6488 42.0423 28.0108 40.4 27.5198Z" stroke="#EA0000" stroke-miterlimit="10"/>
<path id="Vector_10" fill-rule="evenodd" clip-rule="evenodd" d="M57.057 33.5416C55.9816 34.1113 54.9957 34.2335 54.2344 35.493L54.3382 35.5269L54.4062 35.3192C55.0411 34.9059 55.4645 34.2672 56.1261 33.927C56.4138 33.8678 56.7014 33.8086 56.9891 33.7493C57.1153 33.668 57.1913 33.656 57.057 33.5416Z" stroke="#EA0000" stroke-miterlimit="10"/>
<path id="Vector_11" fill-rule="evenodd" clip-rule="evenodd" d="M58.8967 34.9482C58.3763 35.077 57.7792 34.8541 57.2727 34.992C56.4285 35.2203 54.3774 36.7342 54.9074 38.3577C54.8289 40.7542 58.3053 41.773 59.965 40.4715C62.1568 38.7522 61.5821 35.7559 58.8967 34.9482Z" stroke="#EA0000" stroke-miterlimit="10"/>
<path id="Vector_12" fill-rule="evenodd" clip-rule="evenodd" d="M58.1377 35.1597C60.2335 35.7638 61.4513 38.3405 59.5815 39.886C58.0773 41.1295 54.8601 39.9977 55.2151 37.7683C54.9395 36.8672 56.0593 35.5946 56.6874 35.3754C57.1459 35.2156 57.6754 35.3121 58.1377 35.1597Z" stroke="#EA0000" stroke-miterlimit="10"/>
<path id="Vector_13" fill-rule="evenodd" clip-rule="evenodd" d="M40.1344 29.3876C40.7261 29.5565 41.3788 29.7546 41.6245 30.1048C42.386 30.6359 43.1067 32.8292 41.818 33.7323C40.8236 35.1747 39.0891 34.5017 37.809 33.6861C37.6436 33.1322 37.2329 32.6162 37.2118 31.9961C37.1478 30.134 38.7291 29.8034 39.685 29.3556C39.9341 29.414 39.9849 29.4322 40.1344 29.3876Z" stroke="#EA0000" stroke-miterlimit="10"/>
<path id="Vector_14" fill-rule="evenodd" clip-rule="evenodd" d="M39.9345 30.7019C39.7984 30.7433 39.8158 30.7321 39.589 30.7039C39.3459 30.8988 39.1865 30.908 38.9697 31.1913C38.202 31.7481 38.755 32.8089 39.395 33.055C39.606 33.2865 39.9009 33.2005 40.2599 33.2229C41.2225 32.4967 41.6102 31.2269 39.9345 30.7019Z" stroke="#EA0000" stroke-miterlimit="10"/>
<path id="Vector_15" fill-rule="evenodd" clip-rule="evenodd" d="M57.696 36.5102C56.5432 37.0729 55.8017 38.5152 57.6419 39.1369C57.8235 39.0691 57.9904 39.0792 58.2292 39.099C58.4011 38.9529 58.6137 38.8093 58.8145 38.7155C59.1108 37.9171 59.1331 37.5442 58.7707 37.0915C58.5778 36.7954 58.1964 36.6631 57.696 36.5102Z" stroke="#EA0000" stroke-miterlimit="10"/>
<path id="Vector_16" fill-rule="evenodd" clip-rule="evenodd" d="M71.2692 41.0635C71.8699 43.699 72.2949 46.6465 69.6905 49.0556C68.7807 49.8971 67.3766 49.5544 66.9018 50.9031L67.1096 50.971C67.4551 50.969 67.8007 50.9671 68.1463 50.9651C69.1426 50.8202 70.225 50.3372 70.9729 49.7049C73.517 47.5505 73.4673 42.6393 71.2692 41.0635Z" stroke="#EA0000" stroke-miterlimit="10"/>
<path id="Vector_17" fill-rule="evenodd" clip-rule="evenodd" d="M54.0967 35.563C54.0648 35.7917 54.0564 35.7706 54.0987 35.9086C54.1305 35.6798 54.1389 35.701 54.0967 35.563Z" stroke="#EA0000" stroke-miterlimit="10"/>
<path id="Vector_18" fill-rule="evenodd" clip-rule="evenodd" d="M25.5617 37.3846L25.8334 36.5537C23.7829 35.3466 23.4203 31.4675 25.2367 28.8851C25.8103 28.0685 26.7072 27.6183 27.2643 26.9037L27.1605 26.8697C26.0326 27.6139 24.807 27.8784 23.8903 29.1347C21.6811 32.1636 22.7855 36.2545 25.5617 37.3846Z" stroke="#EA0000" stroke-miterlimit="10"/>
<path id="Vector_19" fill-rule="evenodd" clip-rule="evenodd" d="M28.6167 27.6908C27.0331 28.9191 25.3156 30.2753 25.572 33.1339C25.6433 33.9237 25.6745 34.6161 26.309 35.0995L28.0412 29.8022C28.2351 29.2094 28.7369 28.1716 28.6167 27.6908Z" stroke="#EA0000" stroke-miterlimit="10"/>
<path id="Vector_20" fill-rule="evenodd" clip-rule="evenodd" d="M69.7869 41.7285L67.5451 48.5839L67.7529 48.6518C68.3709 48.1824 69.1483 47.7974 69.6446 47.0859C70.7489 45.5046 70.8342 42.534 69.7869 41.7285Z" stroke="#EA0000" stroke-miterlimit="10"/>
<path id="Vector_21" fill-rule="evenodd" clip-rule="evenodd" d="M43.5157 34.5176C42.5465 36.1874 39.482 37.3453 37.2334 35.7975C36.3988 35.2226 36.0345 34.4335 35.4937 33.7339L35.4597 33.8378L35.5636 33.8718C36.2092 36.4683 39.6914 37.2114 41.8317 36.1514C42.3238 35.9076 43.599 35.2193 43.5157 34.5176Z" stroke="#EA0000" stroke-miterlimit="10"/>
<path id="Vector_22" fill-rule="evenodd" clip-rule="evenodd" d="M61.693 40.4615C60.854 41.8551 59.2437 42.5227 57.6958 42.4887C57.0506 42.4739 56.0471 41.8438 55.4466 41.9831C57.7466 42.9192 59.2636 42.7852 60.7321 41.6419C61.0569 41.3894 61.7491 40.9275 61.693 40.4615Z" stroke="#EA0000" stroke-miterlimit="10"/>
<path id="Vector_23" fill-rule="evenodd" clip-rule="evenodd" d="M38.1659 41.7362C38.4484 41.8286 38.6423 41.8966 38.7551 42.0438C39.3554 42.5146 39.602 43.4061 40.0793 43.9716C41.5536 45.7169 44.6594 47.5925 47.7036 47.7295C49.0241 47.7888 50.3995 47.6192 51.537 47.2584C52.2025 47.0467 52.5224 46.509 53.4346 46.7292C53.6296 47.1363 53.7513 47.1439 53.5444 47.7998C49.4881 49.7265 43.1486 49.4608 39.464 45.1501C38.7223 44.282 37.3389 43.3698 37.7524 41.9459C37.8703 41.8664 37.7993 41.929 37.9242 41.7721C38.1282 41.7668 38.0316 41.7858 38.1659 41.7362Z" stroke="#EA0000" stroke-miterlimit="10"/>
<path id="Vector_24" fill-rule="evenodd" clip-rule="evenodd" d="M28.703 48.8746C28.4352 48.948 28.1233 48.7862 27.8041 48.8106C26.7167 48.8966 25.5819 49.5541 24.8756 50.3825C23.9208 51.5021 23.4341 53.736 22.8657 55.4741L19.8427 64.7184C19.316 66.3291 18.5371 68.1532 18.6259 69.4944C18.8407 72.738 20.4696 74.8497 24.608 76.1647L24.6759 75.9569C24.838 75.8505 24.9284 75.7099 25.0535 75.5055C21.4398 74.3253 20.1854 71.3121 20.4497 68.1363C20.6174 66.1139 21.8082 63.6304 22.4857 61.5585C23.1904 59.4036 23.7632 56.508 24.9012 54.8749C26.8916 52.0183 29.318 51.5086 33.0055 51.8912L40.8995 54.4726C48.2895 56.8892 55.7701 57.9879 56.2639 64.0959C56.4175 65.9934 55.1844 68.8034 54.4376 71.0871C51.9889 78.5754 51.0094 82.6304 44.1655 81.7552L44.1315 81.8591C44.192 82.0444 44.1604 82.3192 44.1354 82.5502L45.9012 83.1277C46.4249 83.003 47.0993 83.3784 47.665 83.3595C49.0941 83.3117 50.7074 82.6772 51.7341 81.8157C54.1311 79.8018 55.6276 73.0737 56.9486 69.0339C57.2537 67.9838 57.5587 66.9338 57.8638 65.8838C58.1136 65.0917 58.4723 64.4916 58.5431 63.8064L58.9507 62.56C59.0824 61.1728 59.0232 59.9285 58.2738 59.0043C57.5508 58.1118 55.9522 57.8435 54.6723 57.7117L31.1978 50.0354C30.4456 49.5978 29.6203 49.1823 28.703 48.8746Z" stroke="#EA0000" stroke-miterlimit="10"/>
<path id="Vector_25" fill-rule="evenodd" clip-rule="evenodd" d="M31.8367 53.0039C31.3545 53.1329 30.7597 52.8939 30.2467 52.9438C29.0972 53.0555 27.6416 53.789 26.8348 54.5876C25.8524 55.5617 25.3689 57.3122 24.787 59.0918C23.5764 62.7937 21.1449 68.0402 21.9855 70.8232C22.2537 71.7096 22.9869 72.7771 23.7971 73.3702C24.7841 74.093 26.4838 74.4787 27.884 74.9365C29.6038 75.5373 31.3236 76.138 33.0435 76.7387C34.5655 77.2364 36.4248 78.0483 37.8554 78.1972L40.1405 78.9445C43.5087 80.0459 46.6286 81.339 48.6819 79.898C50.6613 78.5094 51.2464 76.6265 52.3079 73.3803C53.787 68.8571 55.9373 64.1426 53.9328 61.3792C52.6631 59.6272 49.8338 58.889 46.8978 57.9289L31.8367 53.0039Z" stroke="#EA0000" stroke-miterlimit="10"/>
<path id="Vector_26" fill-rule="evenodd" clip-rule="evenodd" d="M60.165 63.417L59.8933 64.2479L59.9632 64.3858C62.1054 65.1951 63.0046 67.9022 63.4146 69.6535C63.5827 70.3723 63.3805 71.1923 63.6002 71.8988L63.736 71.4833C63.5162 70.7445 63.76 69.8769 63.5844 69.1342C63.1075 67.1095 62.1902 64.6311 60.165 63.417Z" stroke="#EA0000" stroke-miterlimit="10"/>
<path id="Vector_27" fill-rule="evenodd" clip-rule="evenodd" d="M22.4326 52.2281L22.7383 51.2933L22.6344 51.2593C22.1019 51.4577 21.4987 51.357 20.9425 51.5109C19.0705 52.0317 16.3209 53.9425 15.3011 56.1048L15.4049 56.1388C16.3701 54.0828 20.1976 51.7962 22.4326 52.2281Z" stroke="#EA0000" stroke-miterlimit="10"/>
<path id="Vector_28" fill-rule="evenodd" clip-rule="evenodd" d="M35.1386 56.268C37.3607 56.964 40.3027 57.5873 42.1677 58.6816L43.3103 59.0552C44.3511 59.693 45.0864 60.5481 45.9489 61.1828C46.7328 60.8014 48.7237 61.1029 49.7541 61.8522C51.3694 63.0258 53.4514 66.3772 51.9029 68.9936C50.6757 71.0681 49.3024 72.4081 47.3642 73.0283C46.6605 73.2535 45.5658 73.1929 44.9831 73.6294C44.4427 74.0352 44.1345 74.6258 43.6087 75.0195C42.0056 76.2184 39.7107 76.8324 37.5021 76.8169C33.2056 76.787 29.8105 72.899 28.9991 70.4721C28.8111 69.9078 28.6412 69.2927 28.5398 68.7122C28.5385 68.4818 28.5372 68.2514 28.5358 68.021C28.3394 67.5996 27.7989 67.2696 27.5272 66.8864C26.4578 65.3747 25.143 61.4678 27.0663 58.8023C28.361 57.0089 30.2165 56.0275 32.372 55.9382C33.0824 55.9084 34.4985 56.4205 35.1386 56.268Z" stroke="#EA0000" stroke-miterlimit="10"/>
<path id="Vector_29" fill-rule="evenodd" clip-rule="evenodd" d="M34.1775 57.4484C33.509 57.3831 32.8405 57.3178 32.172 57.2525C31.0519 57.34 29.775 57.9066 28.9658 58.6186C27.6931 59.74 27.3766 61.9268 27.6451 63.3606C28.2001 66.3138 30.7775 69.3458 34.598 70.5782L34.632 70.4744C32.5018 67.8937 36.2874 62.9413 39.7161 65.1233C41.3518 66.1641 42.6295 68.8155 40.9242 70.9223C40.4863 71.4643 39.7878 71.7112 39.2721 72.1067L39.8953 72.3105C41.2593 71.9931 43.2741 72.9432 44.4217 72.181C45.8489 71.2296 46.6296 67.7781 46.4956 66.1905C46.0202 60.556 41.08 59.6396 34.1775 57.4484Z" stroke="#EA0000" stroke-miterlimit="10"/>
<path id="Vector_30" fill-rule="evenodd" clip-rule="evenodd" d="M47.4068 62.3496C47.2578 62.3928 47.2061 62.3728 46.9574 62.3176L46.8895 62.5253C48.4348 64.7706 48.3196 68.5686 46.3894 71.7898L46.5971 71.8578C47.5813 71.1218 48.8855 70.9167 49.7654 69.9044C52.2987 66.9907 50.6727 63.3792 47.4068 62.3496Z" stroke="#EA0000" stroke-miterlimit="10"/>
<path id="Vector_31" fill-rule="evenodd" clip-rule="evenodd" d="M38.0282 66.066C36.4481 66.6133 35.8557 66.3904 35.4173 68.7765C35.7637 69.3344 35.8048 69.9963 36.36 70.4645C37.5161 71.4389 39.2456 70.913 39.7438 69.9614C40.1248 69.7058 40.4038 68.8526 40.2533 68.4033C40.2817 67.2429 39.4909 66.5014 38.0282 66.066Z" stroke="#EA0000" stroke-miterlimit="10"/>
<path id="Vector_32" fill-rule="evenodd" clip-rule="evenodd" d="M13.2811 59.4685C12.3112 59.7063 11.4986 59.4298 10.5185 59.8299C8.96194 60.4645 6.97257 64.2275 8.75427 65.5766L8.82418 65.7145L8.89211 65.5067C7.82708 63.2974 10.6215 61.001 12.0446 60.7888C12.6003 60.7068 13.3476 61.1076 13.7724 60.7789C13.5758 60.3206 13.7765 59.7915 13.2811 59.4685Z" stroke="#EA0000" stroke-miterlimit="10"/>
<path id="Vector_33" fill-rule="evenodd" clip-rule="evenodd" d="M62.1076 76.8147C64.838 77.9957 65.2287 81.1466 63.0439 83.4446L63.2517 83.5125C63.933 82.9948 64.6368 82.7176 65.1774 81.8427C66.5604 79.606 64.8736 76.4805 62.8967 75.808C62.6232 76.2597 62.3638 76.3312 62.1076 76.8147Z" stroke="#EA0000" stroke-miterlimit="10"/>
<path id="Vector_34" fill-rule="evenodd" clip-rule="evenodd" d="M61.0292 75.5422C59.5469 76.198 58.4709 76.1742 57.4135 77.8091C55.9309 80.1021 57.372 82.8959 59.6903 83.1527L59.7582 82.9449C58.6598 82.2301 57.8729 79.2593 59.2093 77.5915C59.7899 76.8661 60.6726 76.445 61.2369 75.6101L61.0292 75.5422Z" stroke="#EA0000" stroke-miterlimit="10"/>
<path id="Vector_35" fill-rule="evenodd" clip-rule="evenodd" d="M15.1887 60.6671C15.1172 61.6264 15.4995 62.4122 15.4801 63.2919C15.4267 65.7993 13.0793 67.0614 11.5287 67.2887L11.4947 67.3926C16.2397 69.703 18.2364 62.6265 15.1887 60.6671Z" stroke="#EA0000" stroke-miterlimit="10"/>
<path id="Vector_36" fill-rule="evenodd" clip-rule="evenodd" d="M13.6086 62.3349C13.3381 62.3982 13.0052 62.1314 12.6398 62.133C11.7667 62.1357 11.288 62.7089 10.6063 63.0777C10.1271 64.1398 9.74277 65.5778 10.7619 66.118C11.0842 65.9153 11.3896 65.9845 11.7627 65.8704C13.0823 65.468 13.8077 64.5109 14.096 62.9541C13.9183 62.7427 13.8167 62.547 13.6086 62.3349Z" stroke="#EA0000" stroke-miterlimit="10"/>
<path id="Vector_37" fill-rule="evenodd" clip-rule="evenodd" d="M60.9391 77.9273C60.6292 78.1954 60.4404 78.2241 60.218 78.7263C58.8191 79.8632 61.0319 82.0692 61.3123 82.7634L61.4501 82.6935C62.145 82.5282 63.4287 81.3215 63.0603 80.2306C63.0788 79.6633 62.7733 78.9425 62.3254 78.6106C62.099 78.2667 61.5161 78.0991 60.9391 77.9273Z" stroke="#EA0000" stroke-miterlimit="10"/>
<path id="Vector_38" fill-rule="evenodd" clip-rule="evenodd" d="M42.7718 73.7111C41.8394 74.1528 40.6187 73.6432 39.384 73.5231C36.2448 73.2171 32.2582 71.3723 30.3774 69.7731L30.3434 69.8769C31.1977 71.4885 31.9251 72.9865 33.651 74.1779C36.4553 76.1128 41.5068 75.531 42.8757 73.7451L42.7718 73.7111Z" stroke="#EA0000" stroke-miterlimit="10"/>
<path id="Vector_39" fill-rule="evenodd" clip-rule="evenodd" d="M26.0621 76.6401L30.2169 77.9987C30.2389 77.8143 30.2609 77.6299 30.2829 77.4454C29.6062 76.7535 27.6833 76.3516 26.5076 75.981L26.4397 76.1887C26.2293 76.3069 26.2102 76.3467 26.0621 76.6401Z" stroke="#EA0000" stroke-miterlimit="10"/>
<path id="Vector_40" fill-rule="evenodd" clip-rule="evenodd" d="M31.7012 77.6794C31.6716 77.9059 31.6428 78.1908 31.7051 78.3706C32.2118 78.9824 36.2018 79.9683 37.2801 80.3086L37.4179 80.2387C37.5205 80.0423 37.623 79.8459 37.7256 79.6495L31.7012 77.6794Z" stroke="#EA0000" stroke-miterlimit="10"/>
<path id="Vector_41" fill-rule="evenodd" clip-rule="evenodd" d="M38.7342 80.7841L42.7851 82.1088L42.853 81.9011C42.3191 80.8803 40.7048 80.59 39.1797 80.125L39.1117 80.3327C38.9014 80.451 38.8823 80.4907 38.7342 80.7841Z" stroke="#EA0000" stroke-miterlimit="10"/>
<path id="Vector_42" fill-rule="evenodd" clip-rule="evenodd" d="M25.5506 77.8526C25.161 78.3737 24.9054 79.446 24.6655 80.2077L24.8733 80.2756C26.791 79.6288 28.3145 82.6396 28.8622 82.8447C29.5533 82.2828 29.789 80.1324 30.017 79.3132L29.9131 79.2792C29.4328 79.4073 25.9805 78.1787 25.5506 77.8526Z" stroke="#EA0000" stroke-miterlimit="10"/>
<path id="Vector_43" fill-rule="evenodd" clip-rule="evenodd" d="M31.3334 79.8587C30.8412 81.3779 30.2427 82.9268 29.769 84.2911C30.6355 85.1432 31.4348 86.5712 31.6204 87.7709L31.7583 87.701C32.3782 87.3289 32.9981 86.9567 33.618 86.5845C34.0995 86.4201 35.0615 86.3851 35.4119 86.0214L35.5138 85.7098C35.3597 85.1075 36.4509 82.455 36.7346 81.6249L31.3334 79.8587Z" stroke="#EA0000" stroke-miterlimit="10"/>
<path id="Vector_44" fill-rule="evenodd" clip-rule="evenodd" d="M38.085 82.0665C37.7087 83.1331 37.2263 84.3505 36.8263 85.5641L37.0341 85.6321C38.2372 84.6719 40.0136 85.0059 41.8381 85.7083L42.5854 83.4232C41.0853 82.971 39.5852 82.5188 38.085 82.0665Z" stroke="#EA0000" stroke-miterlimit="10"/>
<path id="Vector_45" fill-rule="evenodd" clip-rule="evenodd" d="M25.6764 81.6879C25.3451 81.7681 24.6255 81.5635 24.328 81.5919C24.3287 81.7071 24.3293 81.8223 24.33 81.9375L24.5377 82.0054C25.015 81.8303 25.7314 82.04 26.4054 82.2712L26.4394 82.1673L26.3355 82.1334C26.2255 81.9962 25.8203 81.7962 25.6764 81.6879Z" stroke="#EA0000" stroke-miterlimit="10"/>
<path id="Vector_46" fill-rule="evenodd" clip-rule="evenodd" d="M39.457 86.3094C39.4094 86.6096 39.7308 86.6534 40.3239 86.8228C40.4805 87.0426 40.7457 87.1692 41.0869 87.3023C41.1555 87.2097 41.2241 87.1172 41.2927 87.0246C40.778 86.7889 40.1292 86.5276 39.457 86.3094Z" stroke="#EA0000" stroke-miterlimit="10"/>
<path id="Vector_47" fill-rule="evenodd" clip-rule="evenodd" d="M26.0318 83.4138C25.8353 83.4707 25.5731 83.3818 25.2707 83.2799L25.2368 83.3838L25.3406 83.4177C25.704 83.8631 26.7844 84.3237 27.386 84.5465C27.4659 84.4193 27.5458 84.2921 27.6258 84.165C27.0714 83.9101 26.7252 83.6513 26.0318 83.4138Z" stroke="#EA0000" stroke-miterlimit="10"/>
<path id="Vector_48" fill-rule="evenodd" clip-rule="evenodd" d="M38.0806 87.3538C37.8588 87.4131 37.3245 87.289 37.0778 87.2558L37.0099 87.4636C37.2162 87.6813 37.2437 87.747 37.669 87.9091C38.1967 87.7628 39.0076 88.1475 39.5008 87.9332C39.0274 87.74 38.554 87.5469 38.0806 87.3538Z" stroke="#EA0000" stroke-miterlimit="10"/>
<path id="Vector_49" fill-rule="evenodd" clip-rule="evenodd" d="M28.5324 85.6114C29.0006 85.8534 29.8046 87.2247 29.9925 87.1237C29.7441 86.7956 29.1194 85.1948 28.7382 85.3338C28.6244 85.4192 28.6437 85.4117 28.5324 85.6114Z" stroke="#EA0000" stroke-miterlimit="10"/>
<path id="Vector_50" fill-rule="evenodd" clip-rule="evenodd" d="M35.316 87.3698C34.4067 88.0689 33.2282 88.1802 32.3536 89.0455L32.4574 89.0795C33.3052 88.3341 34.418 88.0158 35.5257 87.7833C35.5251 87.6681 35.5244 87.5529 35.5238 87.4377L35.316 87.3698Z" stroke="#EA0000" stroke-miterlimit="10"/>
<path id="Vector_51" fill-rule="evenodd" clip-rule="evenodd" d="M22.8537 83.6392C20.7942 84.4007 18.5402 84.5099 17.5879 87.4362L17.6578 87.574C17.8619 87.5687 17.7653 87.5877 17.8995 87.5381C18.1492 87.3698 18.2376 87.0247 18.4829 86.809C19.1839 86.1936 20.2776 85.521 21.1697 85.2731C22.0414 85.0308 23.1103 85.3252 24.0022 85.0496L23.8983 85.0156C23.6864 84.5339 23.4649 83.9127 22.8537 83.6392Z" stroke="#EA0000" stroke-miterlimit="10"/>
<path id="Vector_52" fill-rule="evenodd" clip-rule="evenodd" d="M40.8229 89.5154C40.3886 89.887 39.8809 89.8927 39.4445 90.2145C42.0604 91.1082 42.9487 93.7641 43.0716 95.9996C43.1896 95.9201 43.1185 95.9828 43.2434 95.8258C43.798 95.3817 43.5978 94.306 43.5432 93.8543C43.3561 92.3122 42.7023 90.1438 40.8229 89.5154Z" stroke="#EA0000" stroke-miterlimit="10"/>
<path id="Vector_53" fill-rule="evenodd" clip-rule="evenodd" d="M26.4949 85.865C26.6966 86.167 28.4044 87.4092 28.4044 87.4092C27.8207 86.8596 27.3876 86.2949 26.4949 85.865Z" stroke="#EA0000" stroke-miterlimit="10"/>
<path id="Vector_54" d="M28.4744 87.5469L28.754 88.0982" stroke="#EA0000" stroke-miterlimit="10"/>
<path id="Vector_55" fill-rule="evenodd" clip-rule="evenodd" d="M24.1139 86.466C23.5871 86.5957 22.9754 86.3144 22.42 86.372C21.3627 86.4831 20.1665 87.2156 19.3876 87.9099L28.0088 90.729C28.1213 90.5819 28.1734 90.5069 28.2825 90.2436C27.3903 88.5231 26.8149 87.3431 24.1139 86.466Z" stroke="#EA0000" stroke-miterlimit="10"/>
<path id="Vector_56" fill-rule="evenodd" clip-rule="evenodd" d="M32.7867 92.2914L41.6156 95.1785L41.6496 95.0746C41.2087 94.1961 41.0864 93.267 40.4253 92.4897C38.9673 90.7743 35.9506 90.4593 34.2311 91.0391C33.7949 91.318 33.3588 91.597 32.9226 91.8759L32.7867 92.2914Z" stroke="#EA0000" stroke-miterlimit="10"/>
</g>
<defs>
<clipPath id="clip0_151_889">
<rect width="62.9697" height="87.5173" fill="white" transform="translate(27.2012) rotate(18.108)"/>
</clipPath>
</defs>
</svg>
