<svg xmlns="http://www.w3.org/2000/svg" viewBox="0 0 863.86 748.8"><defs><style>.cls-1,.cls-12,.cls-13{fill:#fefefe;}.cls-10,.cls-11,.cls-12,.cls-13,.cls-14,.cls-15,.cls-16,.cls-2,.cls-3,.cls-4,.cls-5,.cls-6,.cls-7,.cls-8,.cls-9{stroke:#000;stroke-miterlimit:10;}.cls-2{stroke-width:7px;}.cls-3{stroke-width:5px;}.cls-4{stroke-width:6px;}.cls-13,.cls-5{stroke-width:3px;}.cls-11,.cls-6{fill:#fff;}.cls-6{stroke-width:2px;}.cls-7{fill:#020000;}.cls-8{fill:#414141;stroke-width:4px;}.cls-10{fill:#a1a1a1;}.cls-14{fill:#3f2817;}.cls-15{fill:#cdcdcd;}.cls-16{fill:#fdfdfd;}</style></defs><title>SIAFI_Cry_BN</title><g id="SIAFI_LOGO" data-name="SIAFI LOGO"><path d="M470.87,433.05v-273c0-1.81-.05-3.61.06-5.41a9.43,9.43,0,0,1,5.81-8.72c35.34-17.12,69-15,101,8.31,1.62,1.19,4.67,2.25,4.69,3.42,0,2.36-2.63,3.85-4.35,5.53-15,14.8-30.06,29.61-45.21,44.29a15.13,15.13,0,0,0-4.74,11.7q.14,65.93.05,131.85c0,12,0,24-.16,36a12.35,12.35,0,0,0,5.05,10.61c16.13,13,32.07,26.17,48.14,39.21,2.61,2.12,3.48,5,4.17,8,1.51,6.67,3,13.32,9,17.77,8.34,6.25,19,6.2,27.47-.22,8-6.06,11-17.48,7.14-27.15a22.33,22.33,0,0,0-24.27-13.67c-5.42.9-9.28-.53-13.29-3.92-12.08-10.2-24.36-20.16-36.65-30.1a13,13,0,0,1-5.23-10.93q.15-73.27-.09-146.55c0-6.15,1.7-10.75,6.17-15,13-12.31,25.66-24.91,38.37-37.49,3.21-3.18,6.38-3.62,10.76-2.28,11.1,3.4,22,7.13,32,13.1,27.89,16.6,45,41.17,53.34,72.32,2.42,9.13,3.78,8.55-6,13.78C667,283.6,650,293,633,302.27a10.44,10.44,0,0,1-8.84.87c-15.86-5.22-29.64,3.9-31,20.45-1.09,13.1,12.11,25.43,25.08,23.43,11.74-1.81,17.94-7.77,20.19-19.51a9.27,9.27,0,0,1,5-6.87c15.61-8.38,31.23-16.76,46.75-25.3,2.34-1.29,3.54-1.1,5.36.87a40.66,40.66,0,0,0,8,6.63c19.09,12.13,30.18,30.07,37.41,51,4.81,13.92,6.54,28.3,7.2,42.91.93,20.58,3.44,41.12.64,61.75-3.13,23.13-9.13,45.2-23,64.48a98.06,98.06,0,0,1-17.76,18.7c-4.13,3.38-4.64,5.15-2.62,10.06a102,102,0,0,1,5.26,62.6c-7.77,34-24.11,63.13-52.54,84.41a77.49,77.49,0,0,1-18.21,10,16.84,16.84,0,0,1-16.45-2.56c-25.77-19.39-51.29-39.11-76.83-58.8a14.62,14.62,0,0,1-6.21-12.18c0-7.66-9.07-16.21-17.71-17.51-13-2-25,6.24-26.84,18.45-2.06,13.52,6.53,25.09,20.11,27.13a15.67,15.67,0,0,0,7.22-.72c4.41-1.44,7.86-.12,11.35,2.58q30.31,23.48,60.78,46.76c4.28,3.28,8.6,6.53,12.9,9.78,2.63,2,3.55,4.36,2.39,7.69a45.17,45.17,0,0,1-18.23,23.27c-11.31,7.48-24,10.88-37.23,12.77-26.15,3.74-49.45-2.22-69.54-19.82a38.93,38.93,0,0,1-13-22.64A90.69,90.69,0,0,1,470.83,706Q470.91,569.54,470.87,433.05Z" transform="translate(-16.39 -17.64)"/><path d="M446.85,400.05q0,117.54,0,235.08c0,20.61.07,41.22.44,61.83.3,16.16-5.42,29.59-16.77,40.84-13.66,13.55-29.92,22.49-48.37,27.58a20.76,20.76,0,0,1-4.92.88c-21.32.44-42.42-.76-62.36-9.42-17.21-7.48-30.31-19.19-37.28-37.05-1.2-3.08-3.68-4.38-6.6-5.39-20.92-7.19-39.26-18.41-54-35.1-12.59-14.2-21.19-30.63-27.06-48.59-1.72-5.26-3.16-10.62-5-15.83-7.39-20.63-7.48-41.43-1.36-62.29,1.47-5,.72-8.44-2.85-12.44C162.49,519.83,152.57,495.4,147,469c-7.91-37.58-6.69-74.81,5.65-111.36,8.16-24.18,21.1-45.2,41.74-60.83,2.56-1.94,3.46-4.64,3.88-7.69,2.43-17.72,6.82-34.88,15.09-50.86q20.91-40.41,62.91-57.65c1.42-.59,2.85-1.2,4.31-1.67,10.16-3.28,18.78-8.71,26.83-16,38.94-35.17,87.79-33.42,119.63-17.66a117.55,117.55,0,0,1,15.26,9c3.3,2.3,5.13,5.27,4.58,9.46a29.23,29.23,0,0,0-.06,3.86Z" transform="translate(-16.39 -17.64)"/><path class="cls-1" d="M609.08,569.64c0,11.47.09,22.93-.06,34.4a10.47,10.47,0,0,0,3.79,8.82c9.63,8,8.75,23.13,2.07,31.08-8.19,9.75-21.53,11.24-31.75,3.7-11.78-8.68-12.17-27.18-.47-36,4.09-3.08,5.3-6.53,5.21-11.5-.28-17.25-.22-34.52,0-51.77,0-5-1.8-8.42-5.63-11.49q-24.65-19.78-49-39.92a14.23,14.23,0,0,0-11.77-3.31c-12.64,1.87-22.25-5.23-25.2-18.61-2.4-10.88,4.71-22.28,16-25.59,13.46-4,27,4.73,28.25,18.71.56,6.06,3.12,10,7.85,13.62,18.87,14.44,37.47,29.22,56.18,43.86a11.21,11.21,0,0,1,4.65,9.6C609,546.7,609.08,558.17,609.08,569.64Z" transform="translate(-16.39 -17.64)"/><path class="cls-1" d="M703.6,367.38c.1,8.19-2.87,14.47-9.25,18.91-3.1,2.15-4.22,5-4.21,8.59.1,31,.6,62.09.11,93.14a14.12,14.12,0,0,0,4.65,11.3c7,6.64,8.29,17.2,3.69,26.32-4.48,8.91-13.83,13.4-24.59,11.81-9.12-1.34-16.32-8.67-18-18.16s1.12-17.28,9-22.93a9.14,9.14,0,0,0,4-8.19q-.1-47.16,0-94.33a13.6,13.6,0,0,0-4.1-10c-6.72-6.79-8.47-14.85-5.3-23.74s10.07-13.93,19.31-14.91C692.22,343.74,704.39,355.13,703.6,367.38Z" transform="translate(-16.39 -17.64)"/><path class="cls-1" d="M426.36,437.29q0,130.3.09,260.62c0,10.69-3.76,19.19-11.48,26.25-10.31,9.43-22.24,16-35.34,20.57-4.76,1.65-9.69.93-14.53.84-17.06-.29-33.73-2.44-48.89-11.17-8.85-5.1-15.57-12.12-19.32-21.77-1.83-4.71-1.37-6.36,2.51-9.35q33.93-26.07,67.84-52.14A11.9,11.9,0,0,1,378,648.69c8.68,1.93,16.16-.63,21.49-7.81,5.59-7.53,6.59-15.8,1.74-24.17-4.52-7.82-11.59-11.51-20.49-11.17-10.29.4-18.75,9-19.45,19.33-.28,4.13-2.73,6.84-5.76,9.16q-29.19,22.41-58.41,44.79c-5.2,4-10.45,7.92-15.53,12.06-3.47,2.81-6.82,3.19-11,1.43-29.57-12.42-49.29-34.11-59.9-64.18-3.75-10.61-8-21.12-9.89-32.3-2.94-17.49-.06-34.26,6.67-50.5,2.08-5,1.89-6.76-2.28-10-19-14.94-28.81-35.42-34.45-58.23-5.18-20.92-5.75-42.17-3.67-63.6,1-10.62.69-21.38,2.22-32,3.52-24.42,12-46.45,31.42-62.93,5.57-4.73,12.16-8.18,17.17-13.64,1.36-1.49,2.61-.29,3.79.35q18.28,9.92,36.53,19.88a14.43,14.43,0,0,0,1.67.93c6.14,2.33,9.73,6.11,11.19,13.15,2,9.51,11.81,15.21,22.24,14.58,8.54-.51,17.32-8.28,19.16-17,1.71-8.11-.8-15.22-6.5-20.74-6-5.85-13.56-7.56-21.71-4.54a10.67,10.67,0,0,1-9.49-.88c-16.3-9-32.68-17.81-49-26.67-5.54-3-5.77-3.17-4.24-9.31C232.28,231,259.8,204,302.91,192.52a8.21,8.21,0,0,1,8.44,2.35Q330.1,213.52,349,232a13,13,0,0,1,4.11,9.95q-.12,69.6-.05,139.2a10.55,10.55,0,0,1-3.92,8.77l-38.44,31.57c-2.47,2-5.27,1.66-8.07,1.11a21.85,21.85,0,0,0-19.45,36.76A21.34,21.34,0,0,0,308,463.9,19.4,19.4,0,0,0,319,449c1.05-7.31,5-11.8,10.51-16.11,13.55-10.62,26.69-21.77,40.06-32.64,3.21-2.61,4.1-5.91,4.09-9.87q-.17-76.17-.22-152.34a33.1,33.1,0,0,1,0-3.86c.54-4.87-1.24-8.66-4.73-12q-21.22-20.52-42.26-41.24c-4.32-4.25-4.27-4.38.39-7.9,16-12.08,33.93-18.51,54-18.19,14.73.23,28.56,4.25,41.6,11.11,2.89,1.52,3.88,3.8,3.86,6.91-.06,9.66,0,19.33,0,29Z" transform="translate(-16.39 -17.64)"/><path d="M317.82,566.49c0,8.25.14,16.5-.07,24.75a9.86,9.86,0,0,0,4.28,8.82c6.37,5,9.78,11.63,8.51,19.87-1.44,9.3-6.66,15.67-15.85,18.45a21.77,21.77,0,0,1-24.6-9.83c-4.93-8.27-3.75-19.93,3.13-26.33a12.2,12.2,0,0,0,4.11-9.84c-.1-20.36.08-40.72-.13-61.08-.06-5.56,1.82-9.36,6.24-12.75C321.18,505,338.67,491,356.3,477.27a11.08,11.08,0,0,0,4.71-8.74c.68-11.68,9.51-20.57,20.22-20.9,11.32-.34,21.86,8.29,22.68,19.85.89,12.59-8.7,25.75-24.32,23.4a12.29,12.29,0,0,0-10.36,2.62q-23.89,19.5-47.84,38.94a9.43,9.43,0,0,0-3.54,7.76q0,13.15,0,26.29Z" transform="translate(-16.39 -17.64)"/><path d="M211.16,509.93a19.37,19.37,0,0,1,6.27-14.8,11.76,11.76,0,0,0,4-9.19q0-43.69.05-87.38c0-3.66-1.1-6.36-4.13-8.56A21.37,21.37,0,0,1,210,365.21a21.68,21.68,0,0,1,41.49,2.6,19.64,19.64,0,0,1-4.92,18.91,17.54,17.54,0,0,0-4.89,12.89q.2,42.33,0,84.67c0,3.65,1.05,6.38,4.06,8.6,8.65,6.39,11.28,17,6.83,26.84-4.16,9.17-14.5,14.16-24.72,11.94C218.13,529.54,211.11,520.42,211.16,509.93Z" transform="translate(-16.39 -17.64)"/></g><g id="Capa_5" data-name="Capa 5"><path class="cls-2" d="M499.57,367.25c29.12-2.77,46.46,3.07,63.75,27.76,8,11.44,12.7,24.13,15.67,37.66,2.89,13.1,6.35,26.08,9.27,39.17,4.76,21.35,12.36,42,15.61,63.71,1.9,12.63,6.65,24.59,8.25,37.27,1.74,13.75,3.24,27.54,2.12,41.4-1.46,18.08-13.19,38.89-32.43,43.9-7.78,2-15.45,1.36-23.24.44-8.13-1-15.74-3.75-23.16-6.81-16.45-6.78-33.75-10-51-13.53-22.74-4.6-45.79-6.67-68.8-9.12-15.39-1.64-30.8-3.08-46.28-3.75A156.33,156.33,0,0,0,293.63,641c-14.27,6.84-26.8,3.47-36.79-7.7-5.95-6.66-7.57-15.14-7.85-23.73-.51-15.74,3.15-30.77,9.1-45.2,18-43.6,46.72-79.41,81.36-110.76,13.32-12.05,27.08-23.7,41.78-34,31.25-21.91,64.62-39.67,101.9-49.18,4-1,8.05-1.51,12.08-2.22a.91.91,0,0,1,.78.21,3.09,3.09,0,0,1,.84,2.48,1.06,1.06,0,0,1-.12.42c-.68,1.13-1.9,1.19-3,1.36-14.78,2.14-28.72,7.08-42.51,12.6-24.58,9.85-47.36,23-68.93,38.19-20.48,14.44-38.57,32.12-57.8,48l-.12.11c-30.54,36.44-60.55,73.25-69.65,119.18-2,10-2.84,20.14.3,30.12,5.64,18,19.84,23.93,36.84,17.23,9.18-3.61,18-8,27.58-10.75a123.41,123.41,0,0,1,25.4-4.84c3.32-.24,4.12-1.59,4.16-4.59.14-12.07.68-24.21,3.41-36,5.18-22.25,14.54-42.53,31.09-58.85a32.4,32.4,0,0,1,18.3-9.53c7.33-1.08,13.16,1.26,17.55,7.29,6.15,8.43,8.83,18.17,10.9,28.16,2,9.8,3.72,19.7,7.56,29,1.81,4.38,3.95,8.58,10.61,10.27a1,1,0,0,0,.64-.06c9.57-4.27,14-12.2,17.14-20.89,2.08-5.69,3.16-11.65,4.35-17.56a180.78,180.78,0,0,1,18.38-50.89c3.09-5.69,6.55-11.14,12.06-14.87,8.85-6,16-3.64,19.76,6.31,5.42,14.22,5.51,29,4.67,43.85-.75,13.39-1.91,26.78-3.82,40.08-2.71,18.79-2.68,37.71-2.48,56.63a56.45,56.45,0,0,1-.73,7.36c-.26,2.22.52,3.52,2.8,4.27,10.68,3.53,21.18,7.58,31.89,11,11.62,3.71,23.22,4,34.43-1.62,8.51-4.28,13.83-11.6,17.79-19.87,5.17-10.8,6.06-22.32,5.24-34.16-.59-8.62-1.89-17.16-2.3-25.78-.21-4.37-2.26-8.17-3.37-12.26-3.38-12.45-5.84-25.12-8.22-37.78-2.55-13.65-6.94-26.82-10.12-40.3-3.64-15.48-8.07-30.78-11.14-46.39-4-20.12-12.64-37.61-27.62-51.75a44.07,44.07,0,0,0-26.08-11.92c-4.28-.49-8.78.22-12.86-1.76a1.2,1.2,0,0,1,.38-1.07,1.72,1.72,0,0,1,1.22-.52C506.93,368,503,369.76,499.57,367.25Z" transform="translate(-16.39 -17.64)"/><path class="cls-3" d="M617.13,217.54c.91,5.13-5.52,5.72-6.2,10a.88.88,0,0,1-.55.71c-10,3.79-17.74,8.76-28.89,11.25a.94.94,0,0,0-.49,1.57,55.58,55.58,0,0,0,10.58,8.9,75.43,75.43,0,0,0,17.74,7.49c1.45.44,2.86,1,4.3,1.4,15.48,4.47,22.28,15.8,24.36,30.83,1,7.46,2.84,14.85,2.2,22.45-.15,1.8.85,2,2,2.45,5.77,2,8.26,5.93,9.37,12.06,2.61,14.56-1.58,27.42-8.39,39.74-4.12,7.46-8,7.82-14.29,2.15-2.95-2.66-5.6-5.82-8.95-7.81s-7.28-2.67-10.94-4c-19.35-7.08-38.88-4.15-58.48-1.38a70.71,70.71,0,0,1-32.48-2.56c-14.81-4.89-22.06-23.22-12.62-35.16a2,2,0,0,0,.27-2.55c-8.12-15.64-6.38-31.53-1.07-47.48,2.57-7.7,5.6-15.2,10.31-21.87,1.7-2.41,1.24-3.15-1.57-3.36-7.93-.6-15.36-2.55-21.63-7.88a31.47,31.47,0,0,1-9.66-13c-3.86-10.31-6.25-21-8.4-31.75-.27-1.35-.58-4.23.47-3.87,1.8.62,5.21-1.58,5.62,2.46.1.94,1.15,1.83,1.87,2.64,16.44,18.38,37.29,28.35,61.37,32.18,1.58.25,3-.39,4.46-.46a40.4,40.4,0,0,1,13,1c9.46,2.59,19.07,1.23,28.57.1a98.32,98.32,0,0,0,26.76-6.84A.93.93,0,0,1,617.13,217.54Z" transform="translate(-16.39 -17.64)"/><path class="cls-4" d="M769.42,77.39c-3.73-1.69-7.83-2.36-11.45-4.5C746.28,66,739.51,52.55,741.54,40.42c1.48-8.81,7.76-13.84,14.91-16.82,23.46-9.78,43.78,6.48,51.7,22.63.62,1.25,1,2.26,2.49,2.67,15.56,4.2,23.93,16,29.48,29.74,3.77,9.36,7.35,19.14,6.81,29.64-.1,1.88,1.48,2,2.41,2.69,13.39,10.65,23.51,24.29,26.16,40.87,2.83,17.7,3,36-5.12,53.23a183.23,183.23,0,0,1-43.87,59.32c-6.89,6.16-15.71,9.93-25.59,7.8-6.12-1.32-10.37-5.61-14.18-10.26-1.3-1.59-2.46-2.86-4.74-3.07-19.54-1.86-29.61-15-36.35-31.48-3.06-7.48-3.84-15.7-4.66-23.74-1.08-10.54-5.88-18.22-15.46-23.12a80.41,80.41,0,0,1-20.85-14.91c-8.86-9-9.13-24.24.81-34.31,4.07-4.12,9-5.62,14.91-4.85,15.54,2.06,26.75,10.85,35.44,23.09,5.43,7.65,9.86,16,14.81,24,1.47,2.38,3.17,5.95,5.74,5.56s2.35-4.51,3.1-7c8.39-28.5,1.66-55.85-6.43-83.08-1.08-3.62-2.32-7.18-3.48-10.77,2.81-1.17,2.69,1.28,3.42,2.41C772.83,78.72,771.49,77.69,769.42,77.39Z" transform="translate(-16.39 -17.64)"/><path class="cls-4" d="M34.66,232A60.75,60.75,0,0,1,32,205.69c.88-8.44-.7-16.38-2.53-24.39-3.71-16.2-4.42-32.34.48-48.44a5.74,5.74,0,0,0-.09-4.23C22,109.28,17.77,89.28,20,68.3c1.23-11.68,10.53-22.16,21.75-25,8.43-2.16,19,2.89,23.71,10.12a46.73,46.73,0,0,1,7.72,21.18c.18,2,.48,2.75,2.66,3,14.24,1.6,19.93,10,21.39,26.39.75,8.39-2.45,16.19-7,23.7,6.83,1.11,13.31,2,19.72,3.24,10,2,18.41,6.39,23.32,15.78,2.65,5.05,2.29,10.81,3.06,16.47,2.87-.51,3.3-3.08,4.3-5,4.34-8.16,8.47-16.49,14.48-23.58A45.68,45.68,0,0,1,185,118.67c14-1.76,24.86,7.85,26.4,22,1.3,12-4.15,21-11.84,29.23a80.69,80.69,0,0,1-13.77,11.28c-17.06,11.67-25.69,28.31-29,48.22-1.59,9.61-3.29,19.19-4.87,28.79-2.11,12.83-10.83,20.29-21.29,26.37-3,1.75-6.07.93-9.12.2-.16.31-.42.59-.42.87,0,7.15.66,14.69-6.63,19-9.48,5.66-19.6,9-30.66,4.92-27.47-10.08-44.06-32.13-47.09-60.93-.34-3.26-1.38-6.48-.87-9.82,1.54-.15,2-2.05,3.58-2.15,2.66,3.38,2,7.56,2.47,11.36a81.32,81.32,0,0,0,15.24,36.78c8.05,10.42,18.95,17,31.36,20.6,8,2.3,15.69-.64,22.63-4.92,3.19-2,4.4-5.2,4.59-8.88.39-7.23-1.16-14.11-3.56-20.85-2.27-6.39-4.87-12.64-7.43-18.9-.72-1.76-1.9-4.08.6-5.23s4.08,1,4.94,2.91c3.75,8.45,7.53,16.9,10.1,25.81,1.56,5.39,4.8,6.79,9.6,3.79,8.38-5.23,15-11.78,16.74-22.19,1.26-7.32,2.84-14.59,3.76-22a109.48,109.48,0,0,1,9.27-32.76c5.81-12.47,16.23-20.66,26.94-28.47a67,67,0,0,0,15.09-15.58,23.61,23.61,0,0,0,4-17.46c-1.77-12.45-11.87-19.29-24.12-15.91-10.93,3-20.3,8.48-26.54,18.55-5.21,8.39-10,17.14-17.81,23.63a7.44,7.44,0,0,0-1.76,3c-3.84,9.08-10.67,13.86-20.47,14.9A100.24,100.24,0,0,0,96.7,189c-9.15,2.76-15,8.53-17.66,17.74a70.34,70.34,0,0,1-2.6,8.52c-.51,1.18-1,2.81-2.54,2.66s-1.52-1.9-1.69-3.14c-1.54-11.51,6.11-24.93,16.8-29.51A86.52,86.52,0,0,1,113.39,179c8.07-.93,14-4.54,16.9-12.46,2.82-7.6,0-18.91-6.4-23.94-4.85-3.84-10.14-6.65-16.52-7.27-5.73-.56-11.28-2.26-17.15-2.31-12.23-.1-22,4.67-28.68,14.71C47.32,169.11,35.18,189.94,37,216.55c.22,3.25,1.56,6.48.47,9.8C35.49,227.74,36.35,230.51,34.66,232Z" transform="translate(-16.39 -17.64)"/><path class="cls-3" d="M438.9,318.44a1,1,0,0,1,1.69.06c1.84,4.33.82,8.46-1.92,12.33-6.49,9.14-16,14.1-26.19,17.58-15,5.12-30.65,5.52-46.33,4.61a76.76,76.76,0,0,0-17.21.46,26.71,26.71,0,0,0-14.56,7c-6.92,6.58-15.07,9-24.57,6.26a18.3,18.3,0,0,1-9-6.19c-9-10.54-14.26-22.24-11.93-36.6.86-5.28,3.4-9.53,6.57-13.41a8.17,8.17,0,0,0,1.94-7c-1.69-14.58,1.82-27.75,11.31-39.14.87-1.05,1.66-2.17,2.46-3.26.07-.09,0-.27,0-.47-3.41-1.38-7.18-1.72-11.14-3.28a.94.94,0,0,1,.2-1.8c5.36-.94,10.18-1.81,15-2.54a17.89,17.89,0,0,0,8.78-4c17.18-13.74,36-24,58.19-27a40.26,40.26,0,0,1,15.89,1,9.19,9.19,0,0,0,8.09-1.33c12.37-8.17,23.67-17.35,30.38-31.05.89-1.8,1.77-3.68,4.4-4.06A74.08,74.08,0,0,1,439.64,211c-1.05,5.1-2.12,10.19-3.31,15.25A29,29,0,0,1,426,243.07c-1.06.83-2.27,1.42-1.14,3.24,7.57,12.23,9.31,26.2,11.57,40,1.23,7.56,3.5,15,3.61,22.69,0,2.19-.14,4.37-.26,6.56a.94.94,0,0,1-1,.89,3.86,3.86,0,0,1-2.62-1.75.89.89,0,0,1-.19-.55c-.16-11.19-3-22-4.61-33a118.74,118.74,0,0,0-13.42-39.89c-4.85-9-12.45-12.51-21.7-14.29-8.92-1.73-17.44.12-25.92,2.5-16.56,4.65-30.61,13.82-43.86,24.46a87.14,87.14,0,0,0-17.27,19.14c-5.53,8.1-7.06,17.08-6.55,26.63.1,1.94.81,3.11,2.84,3.31a11.51,11.51,0,0,1,9.43,6.54c6.1,12.37,17.27,16.15,29.59,17.87,15.45,2.15,30.41-.79,45.18-5.1a1.09,1.09,0,0,1,.26,0c2.65,0,5.3.08,7.77,1.24.6,2.21-1.36,2-2.44,2.41-17.33,6-35,8.66-53.37,6.39-7.66-.95-14.53-3.91-21.09-7.7a18.92,18.92,0,0,1-7.14-7.79,23.15,23.15,0,0,0-5.71-7.46c-1.85-1.49-3.58-1.49-5.59-.06-4.75,3.37-7.24,8.07-8.64,13.54-3.2,12.43,1.13,22.88,8.5,32.55,2.52,3.32,5.27,6.15,9.49,7.47,7.77,2.43,14.22-.25,19.65-5.3,8.68-8.09,19.09-9.32,30.16-8.89,16.72.66,33.49,1.31,49.67-4.1A61.47,61.47,0,0,0,430.51,334c4.24-3.45,7.17-7.58,7.08-13.26a1,1,0,0,1,.28-.69A7.22,7.22,0,0,0,438.9,318.44Z" transform="translate(-16.39 -17.64)"/><path class="cls-5" d="M633.31,387.59a.94.94,0,0,1,1.84-.29A60.58,60.58,0,0,0,647.78,411c5.58,6.59,11.23,13.08,15.94,20.35a35.35,35.35,0,0,1,4.84,29.24,1,1,0,0,1-.2.41,46.36,46.36,0,0,1-22.63,14.72c-6.13,1.78-16.75-2.65-20.8-8.75-5.82-8.75-7.66-17.9-3-27.94,3-6.44,5.25-13.21,8-19.78,4-9.67,3.14-19.87,3.54-30C633.42,388.74,633.34,388.17,633.31,387.59Z" transform="translate(-16.39 -17.64)"/><path class="cls-6" d="M631.49,604.67a.73.73,0,0,1,.69.73c0,16.18,2.29,32.51-3.9,48.28-3.55,9-9.62,15.48-18.68,19.05-14.78,5.84-29.93,9.77-46,8.31a49.75,49.75,0,0,1-10.35-2.24c2.13,0,4.28-.14,6.4,0,18.92,1.43,36.79-2.58,53.58-11.07,10.59-5.35,13.71-15.82,15.82-26.5s1.45-21.56,1.68-32.37c0-1.16,0-2.32,0-3.47a.73.73,0,0,1,.77-.74Z" transform="translate(-16.39 -17.64)"/><path class="cls-6" d="M230.42,610.63c2.28,5.22,1.64,10.86,2.53,16.29A44.29,44.29,0,0,0,241,646.86c4.78,6.37,11.16,10,19.2,10.36,13.86.64,27.55-1.15,41.59-3.1-2.22,2-4.83,1.64-7,2.57l-.17.06c-11.54,2.16-23.18,3.63-34.9,2.9-11.87-.74-19.63-7.55-24.71-17.79C230.12,632,229.76,621.36,230.42,610.63Z" transform="translate(-16.39 -17.64)"/><path class="cls-5" d="M299.06,391.17a.94.94,0,0,1,1.72.21,24.66,24.66,0,0,0,3.75,8c5.77,8.42,3.91,19.44-4.06,26.07A10.55,10.55,0,0,1,286.11,424a15.49,15.49,0,0,1,1-20.88C291.06,399.12,296.16,396.19,299.06,391.17Z" transform="translate(-16.39 -17.64)"/><path class="cls-7" d="M439.83,317c-.85.69,1.62,3.34-1.57,2.65A22.11,22.11,0,0,0,427,319c-8.45,1.38-17,2.13-25.13,5.1-1.22.44-2.49.75-3.68-.05a1,1,0,0,0-.43-.16l-8.25-.83a1,1,0,0,0-.48.08,1.08,1.08,0,0,1-1.52-.5,1.55,1.55,0,0,1,.37-1.65.81.81,0,0,1,.5-.21c10.36-1.05,20.3-4.2,30.48-6.16,1.34-.19,2.7-.31,4.06-.39,4.42-.39,8.85-1,13.23.34,1.48,0,2.37,1.12,3.5,1.77A.64.64,0,0,1,439.83,317Z" transform="translate(-16.39 -17.64)"/><path class="cls-8" d="M496.67,370.76c-.94-.52-1-1.39-1-2.26a1,1,0,0,1,.39-.8c1-.77,2.33-.38,3.51-.45h10.34a.94.94,0,0,1,.16,1.86,2.18,2.18,0,0,0-1.1.53,1.12,1.12,0,0,1-.22.16C504.86,371.71,500.89,372.79,496.67,370.76Z" transform="translate(-16.39 -17.64)"/><path class="cls-9" d="M34.66,232c1.4-1.45-2.42-5.17,2.26-5.18,3.93,2.62,3.68,6.06,1.91,9.8-.52,1.15.45,2.81-.83,3.58s-1.33-1.06-2.17-1.38Z" transform="translate(-16.39 -17.64)"/><path class="cls-10" d="M769.42,77.39c4.74-.51,4.07,3.33,5.69,6.59-3.08-1.69-2.33-5.51-5.53-5.76A.82.82,0,0,1,769.42,77.39Z" transform="translate(-16.39 -17.64)"/><path class="cls-11" d="M496.79,370.75l12-1h.08c14.14,0,27.62,2.15,38.66,12,6.9,6.18,12.26,13.62,17.17,21.42,6.85,10.9,9.52,23.2,12.47,35.48,5.45,22.75,10.72,45.54,17,68.09,2.9,10.41,4.68,21.13,6.84,31.73,1.91,9.37,3.81,18.7,7.23,27.71,1.27,3.36,1.1,7.29,1.43,11,1.33,14.68,4,29.41.38,44.05-4,15.93-12,28.86-28.65,34.26a42.11,42.11,0,0,1-25.14,0c-12.73-3.73-25.22-8.28-37.84-12.38-1.44-.46-1.11-1.25-1.1-2.16.53-25.76.59-51.51,4.15-77.15,2.54-18.32,4.13-36.81,2.28-55.37a67.61,67.61,0,0,0-4.93-19.87c-2.93-6.9-7.91-8.66-14.67-5.35-5.11,2.5-8.67,6.65-11.56,11.39-10.3,16.92-16.81,35.29-20.92,54.6-2.22,10.42-3.83,21.08-10.28,30.09a31,31,0,0,1-7.15,7.31c-5.28,3.78-10.4,3-14.27-2.24-3.63-4.95-5.41-10.75-6.8-16.63-2.08-8.79-4-17.63-5.94-26.45a55,55,0,0,0-7.21-17.38c-6.08-9.6-14.23-12.06-24.76-7.6a42.62,42.62,0,0,0-16.89,13.44c-16.86,21.54-26.57,45.84-27.64,73.37-.23,5.89-.59,11.77-.8,17.66-.05,1.58-.27,2.53-2.2,2.6-20,.72-38.21,7.77-56.15,15.87-6.52,3-13.87,4.11-20.45,1.71a27.33,27.33,0,0,1-16.59-17.23c-4.18-12-3.1-24.06-.46-36.1,5.77-26.3,18.37-49.38,33.51-71.32,20.9-30.31,46.69-55.79,75.05-79.11A364.35,364.35,0,0,1,429,394c21.14-10.77,43.17-19.54,67-22.87a.64.64,0,0,0,.33-.18A1,1,0,0,1,496.79,370.75Z" transform="translate(-16.39 -17.64)"/><path class="cls-9" d="M521.28,522.45c-.17,19.3-2.26,37.13-4.43,54.95a337.91,337.91,0,0,0-2.32,43.48c0,6.17-.18,12.34-.1,18.51,0,2.51-.38,3.42-3.21,2.63-26.48-7.29-53.55-11.08-80.82-13.81-22.48-2.25-44.9-5.26-67.55-5.29-1,0-1.92,0-2.88,0-7.73.18-7.82.17-7.25-7.75.73-10.1,1.08-20.29,3.16-30.21,4.72-22.56,14.06-42.86,30.64-59.33a28.13,28.13,0,0,1,15-8.09c5.73-1,10.45.31,14.11,5.23,6.52,8.76,8.87,19,11,29.36,2.06,10.05,3.83,20.19,8.26,29.59,2.51,5.34,6.29,9.79,13.8,11.48a.92.92,0,0,0,.61-.06c12.55-5.55,18.72-15.64,21.9-27.43s5.24-24.09,9-35.86a153.52,153.52,0,0,1,15.94-34.6,24.68,24.68,0,0,1,8.62-8.67c5.64-3.25,9.2-2,11.59,4.06C520.45,501.3,521.52,512.44,521.28,522.45Z" transform="translate(-16.39 -17.64)"/><path class="cls-9" d="M623.43,304.73c0,1.65.09,3.29,0,4.93-.32,5.14-2.22,8.64-7.54,10.94-10.11,4.36-20.1,8.56-31.28,9.3a84.28,84.28,0,0,1-26.06-2.49c-5-1.25-10-2.74-15-4.11a16.77,16.77,0,0,1-7.24-3.63,17.61,17.61,0,0,0-7.95-4.15c-5.72-1.31-8.31-5.44-10-10.45a37.28,37.28,0,0,1-2.13-15c1.66-18.8,8.78-35,23.31-47.41,9.53-8.15,22.38-7.1,30.87,2.28,3.85,4.25,7,9.11,11.62,12.71a49.08,49.08,0,0,0,15.23,7.92l6.65,2.14c9.26,3,15.1,8.92,17,18.73C622,292.54,623.52,298.52,623.43,304.73Z" transform="translate(-16.39 -17.64)"/><path class="cls-11" d="M649.66,337.58a1.62,1.62,0,0,1,0,.22A72,72,0,0,1,640,365.88c-2.71,4.64-4.6,4.57-8.79,1-3.33-2.84-6.75-5.58-10.11-8.38-2.36-2-5.26-2.63-8-3.76-17.12-7-34.74-7-52.55-4.2-12.93,2-25.79,3.56-38.69-.06-11.43-3.2-17.6-11.4-17.41-21.8.16-8.43,8.82-13.69,15.77-12.1,6.15,1.4,11.62,4.44,17.38,6.68,10.11,3.93,20.56,7.34,31.49,8.81,16,2.16,31-.75,45.42-7.8,7.72-3.77,15.58-7.35,24.54-7.12,5.08.13,8.65,2.89,9.3,7.89C648.89,329.08,649.21,333.14,649.66,337.58Z" transform="translate(-16.39 -17.64)"/><path class="cls-12" d="M625.87,316.17a.94.94,0,0,1-1.11-1.11c2.81-13.74.13-26.41-5.06-38.69-2.92-6.89-10.85-9-16.85-11.78l-.14,0c-10.91-2.77-21.2-7.28-27.07-16.89-9-14.72-32.06-16-43.93-2.25-11.6,13.4-18.19,28.61-19.19,46.16a36.92,36.92,0,0,0,4.83,20.08.94.94,0,0,1-.76,1.4,11.27,11.27,0,0,0-3.25.48c-2.84,1.05-4-.39-4.9-2.69a50.61,50.61,0,0,1-3-28.24c5.22-29.17,20.38-53,54.5-68.25a1,1,0,0,1,1.24.46c10.58,22.28,24.09,39.78,45.8,45,17,4.09,26.47,14.27,28.35,31.77.68,6.39,2,12.7,2,19.18,0,2.4-.78,3.45-3.13,3.8C631.43,315,628.71,315.59,625.87,316.17Z" transform="translate(-16.39 -17.64)"/><path class="cls-11" d="M480.39,195.64c14.18,15,31.59,24.18,52.07,29.3a.93.93,0,0,1,.35,1.65A69.09,69.09,0,0,0,521,237.8a2.41,2.41,0,0,1-2.2.89c-8.43-1-16.88-1.49-24-7.24-5.3-4.27-8.41-9.72-10.4-15.91s-3.77-12.65-5.57-19A.94.94,0,0,1,480.39,195.64Z" transform="translate(-16.39 -17.64)"/><path class="cls-11" d="M573.29,228.92c9.58-.78,19.17-1.07,28.75-4.07a.94.94,0,0,1,.85,1.65,26.69,26.69,0,0,1-4.23,2.3,79.34,79.34,0,0,1-14.1,5.68c-7.07,2-8,2-12-4.1A1,1,0,0,1,573.29,228.92Z" transform="translate(-16.39 -17.64)"/><path class="cls-13" d="M821.94,198.59c6.44-3.93,6.64-8.65,2.3-39,4.94,1.19,7.86,5.12,11.94,7.62.37-4.34-2.35-6.85-5.63-8.83-6.93-4.2-14.51-7.1-21.83-10.53-10.76-5-13.05-19.42-4.56-27.77a33.29,33.29,0,0,1,21.63-9.82c12.1-.83,22.33,2.94,30.25,12.47a94.93,94.93,0,0,1,14.7,24.55,25.77,25.77,0,0,1,2.07,10.58c-.21,10.68,1.56,21.35-1.36,32-3.55,12.94-9.65,24.55-16.9,35.63s-15.88,21.12-24.88,30.83a46.4,46.4,0,0,1-12.13,9.27c-12.31,6.65-22.26,3.75-29.16-8.8-4.7-8.53-7.15-18.38-10-27.8-2.1-6.83-1.07-13.44,4-19,.77-.82,2-1.9,1-3-1.32-1.43-2.34.29-3.23,1-6.62,5.16-8.51,15.76-4.34,26.55,2.74,7.08,5.7,14.06,7.56,22.33-7.18-2-13.65-4.4-19.31-9.22-13.54-11.52-17.57-27.06-19.13-43.69-1.13-11.92-6.41-20.87-17.24-26.51-7.62-4-15-8.47-20.76-15-7.31-8.24-6.62-24.17,1.22-30a15.54,15.54,0,0,1,11.69-2.83c14.78,1.84,25,10.64,33.12,22.18,4.84,6.87,8.82,14.34,13.2,21.53a47.57,47.57,0,0,0,2.7,4.15,14.22,14.22,0,0,0,7.76,5c1.14.33,1.58.55,4.2-5.26a69.78,69.78,0,0,0,6.1-34.24,224.27,224.27,0,0,0-11.16-56.21c4.9,6.23,11.65,10.27,17.34,15.51,4.93,4.54,6.85,14.9,4.12,21.17-5.09,11.66-.82,23.83,11.16,28.05,9.87,3.47,14.95,8.8,15.3,19.65C823.93,180.26,824.8,189.2,821.94,198.59Z" transform="translate(-16.39 -17.64)"/><path class="cls-13" d="M845.16,108.77c-15.2-3.07-29.67-4.16-41.64,7.09-1.58-1-1.17-2.28-1.36-3.3-1.25-6.73-3.94-12.46-9.95-16.38a63.56,63.56,0,0,1-8.43-6.87c-8.82-8.22-10-21.15-2.51-29.8,5.07-5.84,12.2-7.81,19.56-7.88,8.59-.08,16.37,2.06,22.65,9,6.78,7.46,12.42,15.23,14.86,25.22C840.16,93.29,842.7,100.6,845.16,108.77Z" transform="translate(-16.39 -17.64)"/><path class="cls-13" d="M804.68,47.9c-17.54,1.52-31.46,6.72-32.45,26.07C758.08,71.23,748.94,63,745.51,49c-1.53-6.25,5.28-18.82,11.18-21.29C777.34,19,795,30.58,804.68,47.9Z" transform="translate(-16.39 -17.64)"/><path class="cls-13" d="M38.83,236.66c-.35-3.33.37-6.86-1.91-9.8-3.35-21-.68-41,9.29-60.05,3.75-7.16,9-12.54,13.57-19.27,8.07-11.77,19.28-16.93,33.13-15.65,10.34,1,20.69,2,30,8,9.91,6.4,13.38,25.09,4.23,34.57-4,4.15-9.08,5.12-14.33,5.83a91.49,91.49,0,0,0-20.63,5C78.91,190.4,71.81,202.63,74,218.58c1.75-5.38,3.24-9.44,4.39-13.59,2.41-8.75,8.09-14,16.61-16.78a123.34,123.34,0,0,1,21.68-4.88c6.93-1,12.54-4.07,15.93-10.4,2.23-4.16,4.52-7.94,8.25-11.28,5.11-4.56,8.39-11,11.87-17,5.56-9.6,13.76-15.82,24-19.74,11.1-4.26,19.72-3,25,3.68,7.3,9.33,7.73,21.53,1,30.8A63.1,63.1,0,0,1,187,175.14c-15.55,10.5-27.14,23.92-31.86,42.6-1.95,7.71-2.93,15.55-4.3,23.34-.79,4.55-1.64,9.1-2.2,13.68-1.44,11.84-8.32,19.81-18,25.79-5.49,3.37-9.88,1.54-11.49-4.49-2.43-9.12-6.43-17.65-10.17-26.27-.59-1.35-1.4-3.7-3.42-2.68-2.27,1.14-.13,2.85.37,4.18,3.69,9.87,8.55,19.34,10.41,29.85,3.06,17.37.11,23-20.86,25.86-11.92,1.62-21.5-5.48-30.37-12.4-14.14-11-22.09-28.53-24.32-45.8C40.22,244.74,39.47,240.7,38.83,236.66Z" transform="translate(-16.39 -17.64)"/><path class="cls-13" d="M34.56,186.2c-9.33-32.18-1.23-61,12.26-88.93,4-8.39,12.73-12.61,22.11-15.23C79.35,79.13,87.82,84,91.6,94c4.37,11.64.65,22-3.74,32.47a3,3,0,0,1-2.59,2c-19.47,2.3-31.54,13.64-39.22,29.75C41.82,167.11,37.1,175.79,34.56,186.2Z" transform="translate(-16.39 -17.64)"/><path class="cls-13" d="M30.89,125.65C27,106.33,21,87.84,23.7,68.17c1.71-12.41,14.92-20.41,26.62-19.86,6.06.28,10.3,3.28,13.11,8.32A89.14,89.14,0,0,1,68.07,67c1.17,2.9,2.39,6,2,9.09-.52,4.07-4.88,2.7-7.36,4.07-7.3,4-15,7.58-19,14.79A102.78,102.78,0,0,0,33.4,120C33,121.7,33,123.65,30.89,125.65Z" transform="translate(-16.39 -17.64)"/><path class="cls-11" d="M398,323.93c8.34-2.48,16.74-4.69,25.42-5.58,4.39-.45,8.76-2.18,13.26-.38a2.38,2.38,0,0,1,1.55,1.67c1.79,5.93-1.46,10.09-5.36,13.59a62.35,62.35,0,0,1-32.65,15.25c-12.93,2.06-25.93,2-38.95,1.27a58.68,58.68,0,0,0-14.72,1,27.58,27.58,0,0,0-14.05,7.15c-6,5.72-13,8.58-21.39,6a11.75,11.75,0,0,1-5.37-2.84c-10.5-10.91-16.91-23.22-13.16-38.93,1.51-6.33,5.27-11.17,10.26-15.16,1.25-1,2.56-.52,3.86,0a10.67,10.67,0,0,1,5.88,6.06c4.65,11.19,14.66,14.53,25,17.24,12.48,3.28,25,1.52,37.52-.3C383,328.88,390.53,326.51,398,323.93Z" transform="translate(-16.39 -17.64)"/><path class="cls-12" d="M387.87,323l1.43.1c-5.41,3.44-11.69,3.34-17.7,4.4-10.45,1.83-20.88,2.68-31.42.51a63.86,63.86,0,0,1-17.57-6.71c-3.42-1.86-5-5.31-6.88-8.51-2.84-4.87-5.94-9.31-12.64-8.73-2.6.22-1.65-2.06-1.75-3.29a45.07,45.07,0,0,1,12.12-35.52c17.9-19.61,39.15-33.77,65.63-39,12-2.36,23.45-.91,33.72,6.32a14.74,14.74,0,0,1,3.61,4.21c11,16.45,14.91,35.09,17.7,54.2,1.11,7.66,3.13,15.19,2.16,23a1,1,0,0,1-.67.79c-3.88,1.08-7.91-.33-11.8.54-1.35-.11-1.07-1.15-.77-1.77,3.21-6.76,2.11-13.68.66-20.54-1.35-6.43-2.13-13-3.42-19.4-1.73-8.68-5.67-16.42-9.72-24.27-5.27-10.23-14.59-12.72-25.51-14.14a.62.62,0,0,0-.27,0c-25.74,3.64-46.52,15.53-62.24,35.46-6.46,8.19-8.62,17.65-7.47,27.86a19.57,19.57,0,0,0,8.31,14.1c8.15,5.9,17.49,8.24,27.32,9.23a228.2,228.2,0,0,0,34.88.43A3,3,0,0,1,387.87,323Z" transform="translate(-16.39 -17.64)"/><path class="cls-11" d="M408.71,224.94c12.05-8.35,22.74-17.66,29.2-31.59a.94.94,0,0,1,1.8.34,32.42,32.42,0,0,1-.83,8.75c-1.59,7.63-3.18,15.26-5.1,22.81a30.17,30.17,0,0,1-8.52,14.28c-2.51,2.45-4.19,1.81-5-.94-1.74-5.92-6.71-8.53-11.12-11.79l-.45-.33A.94.94,0,0,1,408.71,224.94Z" transform="translate(-16.39 -17.64)"/><path class="cls-14" d="M307.23,256.59l7.32-1.31a.94.94,0,0,1,.94,1.45c-1.75,2.7-2.9,3-8.31,1.7A.94.94,0,0,1,307.23,256.59Z" transform="translate(-16.39 -17.64)"/><path class="cls-11" d="M635.81,403a.94.94,0,0,1,1.76-.38c6.2,11.33,16.76,19.22,23.22,30.21A40.62,40.62,0,0,1,666,445.22c1.68,8.16-.26,15.23-7.1,20.52a38.42,38.42,0,0,1-15.38,7.53c-7.1,1.51-12.32-2.34-16.2-7.48-5.72-7.56-7.41-16-3.22-25.08,2.11-4.6,3.84-9.37,5.74-14.06C632.92,419,635.35,411.3,635.81,403Z" transform="translate(-16.39 -17.64)"/><path class="cls-11" d="M298.34,395.11a1,1,0,0,1,1.68.2,21.42,21.42,0,0,0,2.53,4.81,19.29,19.29,0,0,1-3.08,24c-2.83,2.72-8.23,1.89-11.19-1.73a12.89,12.89,0,0,1,.5-17.2c1.76-1.91,3.62-3.73,5.55-5.47A26.07,26.07,0,0,0,298.34,395.11Z" transform="translate(-16.39 -17.64)"/><path class="cls-9" d="M419,315.53c-10.22,2.41-20.24,5.92-30.93,5.85a1,1,0,0,0-.33.06c-1.11.41-1.83.16-1.22-1.21.51-1.15,1.87-1.53,2.88-2.22,7-4.79,4.37-11.52-8.05-18.81a1.09,1.09,0,0,0-1,0c-15.62,9.28-13.85,14.42-9.52,18.59.94.91,2.66,1.65,2.14,3.18-.59,1.72-2.52,1.47-3.94,1.36-10.07-.83-20.23-.93-30.12-3.32a39.08,39.08,0,0,1-14.76-6.92c-7.88-6-8.89-14.37-8-23.27.83-8.66,5.14-15.76,10.83-22.1a4.82,4.82,0,0,1,3.12-1.83,1.57,1.57,0,0,1,1.43,1.1c.11,2.77-1.12,5.33-1.15,8.1-.05,5.75,2.07,10.21,7.4,12.67,9.78,4.52,19.37,3.25,28.28-2.12,6.9-4.15,6.63-15.11.08-20.7s-13.81-8.25-22.42-6.39a5.62,5.62,0,0,1-2.85.06,1.63,1.63,0,0,1-1-1.27,1,1,0,0,1,.06-.48c1-2.41,3.33-3.38,5.24-4.67,12.93-8.74,26.75-15.18,42.77-14.92a28.35,28.35,0,0,1,17.89,6.29c3.31,2.71,4.51,6.77,6.63,10.23,6,9.81,7.75,20.95,9.62,32,1.17,6.89,2.82,13.7,2.36,20.76-.26,4-.93,7.92-5.18,9.86Z" transform="translate(-16.39 -17.64)"/><path class="cls-9" d="M330.19,265a.84.84,0,0,0-.29.2c-8,8-13.08,17.16-13,28.94.05,9.12,4.23,15.23,11.81,19.66,7.84,4.59,16.56,5.55,25.3,6.35,5.22.47,10.46.68,16.33,1a.94.94,0,0,0,.63-1.68,20.27,20.27,0,0,1-1.82-1.57c-3.56-3.56-3.37-8.07.39-11.37,2.3-2,3.64-5.05,7.15-5.84a16.12,16.12,0,0,1,15.41,5.5c4.2,5.5,3.13,8.77-4.68,14.28a2.32,2.32,0,0,1-.36.16l.79.68-.51,1.66c-17.23,1.62-34.46,1.86-51.24-2.88-22.92-6.49-27.27-23.67-18.37-43.86,3.42-7.77,9.45-13.75,15.91-19.13,12.92-10.76,27.18-19,44-21.85,11.45-1.93,22.81-.86,30.56,8.58a56.28,56.28,0,0,1,11.71,23.61c2.27,10.57,4,21.26,6,31.88,1,5.36-.21,10.38-1.92,15.36a1,1,0,0,1-.86.63l-2,.08a.94.94,0,0,1-.81-1.48,14.92,14.92,0,0,0,3-10.86c-1.86-15.87-3.29-31.9-10.29-46.61-2.25-4.73-4-10-8.34-13.38-7.4-5.74-16.05-6.72-25-5.28A80.19,80.19,0,0,0,341,255.7a1.1,1.1,0,0,1-.53.26.79.79,0,0,0-.53.26C337,259.47,334.45,263.21,330.19,265Z" transform="translate(-16.39 -17.64)"/><path class="cls-9" d="M572.41,270.25c0,.29,0,1,0,1.66-.47,8.64-11.93,17.62-23,18.09-10.8.46-17.06-4.37-18.49-14.35-.71-5,.88-9.49,3.76-13.49,4.09-5.68,9.83-8.94,16.48-10.79C560.69,248.69,573.06,256.39,572.41,270.25Z" transform="translate(-16.39 -17.64)"/><path class="cls-9" d="M585,320.71a21.12,21.12,0,0,1-12.33-3.25c-9.83-6.41-6.86-18.51,10.89-28.38a1.13,1.13,0,0,1,.7-.09c23.23,5.72,27.19,21.16,15.86,28.2C596.21,319.61,591.35,320.79,585,320.71Z" transform="translate(-16.39 -17.64)"/><path class="cls-9" d="M341.05,257.18a25.47,25.47,0,0,1,27.48,7.56c6.59,7.84,4.41,18.31-4.85,22.61a33,33,0,0,1-20.83,2.5c-11.9-2.41-16.76-12.36-11.72-23.64C333.27,261.92,336.27,258.57,341.05,257.18Z" transform="translate(-16.39 -17.64)"/><path class="cls-15" d="M341.05,257.18a28.14,28.14,0,0,0-9.41,8.34.73.73,0,0,1-1.11.09l0,0a.75.75,0,0,1-.05-1,41.28,41.28,0,0,1,8.94-8,.94.94,0,0,1,1.19.13Z" transform="translate(-16.39 -17.64)"/><path class="cls-16" d="M380.19,318.61c-5.53,0-9.94-2.72-10.19-6.34-.29-4.08,4.92-8.77,10.07-9.06s10.76,3.81,11.07,8.31C391.38,315.07,386,318.58,380.19,318.61Z" transform="translate(-16.39 -17.64)"/><path class="cls-12" d="M549.4,286.67h-.11c-11.74-.11-17.53-8.13-14.46-17.62,2.58-8,13.23-15.78,21.54-15.05a13.08,13.08,0,0,1,11.11,8c2.6,6,2.76,12.07-2.25,17.14A25,25,0,0,1,549.4,286.67Z" transform="translate(-16.39 -17.64)"/><path class="cls-12" d="M585,317.31a16.83,16.83,0,0,1-11.19-2.94c-3.35-2.45-4.27-5.69-2.8-9.4,4.51-11.36,21.62-14,29.22-4.57,4.41,5.49,3.36,11-2.8,14.34A22.94,22.94,0,0,1,585,317.31Z" transform="translate(-16.39 -17.64)"/><path class="cls-12" d="M348.38,287.36H348c-9.18-.21-15.29-4.68-16-11.68s5.32-14.66,13.25-16.6c9.17-2.24,20.12,3.2,23,11.41,2.14,6.15.27,10.78-5.5,13.68A35.73,35.73,0,0,1,348.38,287.36Z" transform="translate(-16.39 -17.64)"/></g></svg>